<?xml version="1.0" standalone="no"?>
<!DOCTYPE svg PUBLIC "-//W3C//DTD SVG 1.1//EN" "http://www.w3.org/Graphics/SVG/1.1/DTD/svg11.dtd" >
<svg xmlns="http://www.w3.org/2000/svg" xmlns:xlink="http://www.w3.org/1999/xlink" version="1.1">
<metadata>
Created by FontForge 20190801 at Sat Feb  2 20:42:20 2019
 By Jimmy Wärting
Copyright Pauline Le Pape
</metadata>
<defs>
<font id="Till-Normal" horiz-adv-x="500" >
  <font-face 
    font-family="Till Normal"
    font-weight="400"
    font-stretch="normal"
    units-per-em="1000"
    panose-1="2 0 0 0 0 0 0 0 0 0"
    ascent="800"
    descent="-200"
    x-height="500"
    cap-height="700"
    bbox="-5 -260 1550 940"
    underline-thickness="50"
    underline-position="-100"
    stemh="64"
    stemv="35"
    unicode-range="U+0020-FB06"
  />
<missing-glyph horiz-adv-x="525" 
d="M431 800v-1050h-333v1050h333zM350 730h-174v-35h69v-39h-70v-34h175v34h-70v39h70v35zM280 594h-105v-109h175v36h-70v73zM245 559v-38h-35v38h35zM350 457h-175v-35h70v-39h-70v-34h105v73h70v35zM350 394h-35v-70h-140v-35h175v105zM350 266h-105v-59h35v24h35v-49
h-105v84h-35v-119h175v119zM350 84h-175v-119h175v119zM315 49v-49h-105v49h105zM350 -59h-175v-35h74l-74 -49v-35h175v35h-107l73 49h34v35z" />
    <glyph glyph-name="fi" unicode="fi" horiz-adv-x="558" 
d="M463 500v-406c0 -81 40 -84 72 -84v-10h-500v10c31 0 72 11 72 84v370c-49 1 -77 -11 -77 -11l17 47h197c-63 2 -211 37 -211 156c0 98 83 147 181 147c191 0 233 -72 233 -134c0 -20 -17 -45 -45 -45c-30 0 -42 19 -42 45c0 28 16 112 -134 112
c-94 0 -123 -74 -123 -130c0 -91 117 -151 247 -151h113zM168 97c0 -72 37 -87 116 -87c78 0 117 13 117 86v300c0 70 -54 85 -94 90l-5 -118h-10c0 67 -22 97 -124 97v-368z" />
    <glyph glyph-name="fl" unicode="fl" horiz-adv-x="598" 
d="M564 12v-12h-529v10c31 0 72 11 72 84v370c-49 1 -77 -11 -77 -11l17 47h197c-63 2 -211 37 -211 156c0 115 91 144 184 144h346v-10c-41 0 -90 -9 -90 -94v-578c0 -98 19 -106 91 -106zM412 118l-2 568c0 89 -47 101 -139 101c-133 0 -165 -73 -165 -141
c0 -84 83 -138 201 -145v-133h-10c0 67 -27 97 -129 97v-350c0 -93 40 -103 119 -103c88 0 125 8 125 106z" />
    <glyph glyph-name="f_f" unicode="ff" horiz-adv-x="688" 
d="M316 778v-154h-15s1 158 -104 158c-67 0 -95 -52 -95 -108c0 -102 125 -174 206 -173h62c0 175 64 302 196 302c56 0 88 -30 88 -30c1 0 0 -163 0 -163l-12 1c1 0 -14 160 -107 160c-82 0 -103 -159 -103 -211c0 -40 2 -59 44 -59c37 0 65 2 107 7l-20 -44h-131v-337
c0 -90 8 -117 106 -117v-10h-503v10c49 0 72 21 72 94v360c-44 2 -76 -11 -76 -11l16 47h209c-61 0 -226 65 -226 184c0 98 86 125 161 125c81 0 125 -31 125 -31zM169 122c0 -91 20 -112 98 -112c84 0 103 20 103 111v343h-201v-342z" />
    <glyph glyph-name="I_J.liga" unicode="IJ" horiz-adv-x="559" 
d="M514 700v-10c-42 0 -93 -10 -93 -97v-583c0 -182 -86 -200 -187 -230l-3 9c75 27 125 32 126 221l3 583c0 81 -48 94 -87 94s-81 -12 -81 -91v-368c0 -79 50 -88 90 -88v-10h-242v10c39 0 93 10 93 94v362c0 85 -54 94 -93 94v10h474z" />
    <glyph glyph-name="O_O.liga" unicode="OO" horiz-adv-x="1124" 
d="M748 707c259 0 356 -201 356 -356c0 -209 -142 -357 -354 -357c-73 0 -136 18 -188 50c-54 -32 -119 -50 -192 -50c-214 0 -347 156 -347 358c0 207 144 355 345 355c80 0 144 -19 195 -50c52 32 115 50 185 50zM385 20c62 0 111 16 150 42c-84 65 -132 169 -132 290
c0 116 45 213 120 276c-45 34 -100 54 -163 54c-187 0 -269 -151 -269 -306c0 -157 81 -356 294 -356zM765 20c195 0 267 158 267 314c0 190 -115 348 -292 348c-61 0 -111 -16 -150 -43c95 -72 134 -189 134 -288c0 -118 -45 -216 -122 -280c42 -31 96 -51 163 -51zM573 96
c56 61 79 150 79 238c0 108 -37 206 -102 270c-54 -58 -79 -142 -79 -228c0 -96 30 -208 102 -280z" />
    <glyph glyph-name="T_H.liga" unicode="TH" horiz-adv-x="989" 
d="M964 688c-69 0 -94 -44 -94 -107v-477c0 -59 22 -92 93 -92v-12h-273v12c79 0 126 15 126 105v189c0 18 0 30 -21 30h-417c-26 0 -26 -12 -26 -34v-205c0 -96 130 -86 132 -86v-11h-319v9c0 2 124 -9 124 89v532c0 35 -9 43 -45 43h-62c-111 0 -144 -179 -144 -181l-13 3
l39 205h520l36 -201l-13 -5s-14 178 -149 178h-64c-35 0 -42 -7 -42 -42v-219c0 -19 2 -33 27 -33h413c23 0 24 11 24 31v173c0 90 -47 106 -126 106v12h274v-12z" />
    <glyph glyph-name="c_t.liga" unicode="ct" horiz-adv-x="815" 
d="M495 451l-5 23c13 3 60 22 60 92c0 71 -52 114 -131 114c-99 0 -144 -54 -144 -103c0 -80 62 -91 92 -100c20 -6 57 -7 57 -7l19 -161h-12s-27 153 -180 153c-69 0 -155 -55 -155 -199c0 -174 100 -234 176 -234c109 0 160 84 160 84l12 -6s-64 -116 -181 -116
s-236 66 -236 247c0 198 116 249 247 249c1 0 -30 24 -30 87c0 79 62 135 175 135c88 0 165 -42 165 -138v-71h190l-32 -48h-157v-294c0 -76 10 -120 76 -120c51 0 110 42 110 42l7 -12s-81 -78 -149 -78c-106 0 -114 100 -110 159l20 302h-44z" />
    <glyph glyph-name="i_j.liga" unicode="ij" horiz-adv-x="444" 
d="M311 760c14 0 43 -35 43 -45s-28 -43 -43 -43c-10 0 -28 38 -63 38h-41c-37 0 -53 -38 -66 -38c-12 0 -43 33 -43 43s31 45 43 45c10 0 29 -35 67 -35h39c36 0 55 35 64 35zM414 500l-1 -422c0 -160 -8 -238 -85 -292c-27 -19 -62 -46 -98 -46c-28 0 -31 16 -31 34
c0 51 74 2 101 18c32 19 47 73 49 286l3 265c1 94 17 141 -86 141c-84 0 -97 -17 -100 -90c-1 -111 -3 -230 -3 -275c0 -90 3 -107 80 -107v-12l-217 -1v13c39 0 79 16 79 105l1 263c0 75 2 108 -59 108h-32v12h399z" />
    <glyph glyph-name=".notdef" horiz-adv-x="525" 
d="M431 800v-1050h-333v1050h333zM350 730h-174v-35h69v-39h-70v-34h175v34h-70v39h70v35zM280 594h-105v-109h175v36h-70v73zM245 559v-38h-35v38h35zM350 457h-175v-35h70v-39h-70v-34h105v73h70v35zM350 394h-35v-70h-140v-35h175v105zM350 266h-105v-59h35v24h35v-49
h-105v84h-35v-119h175v119zM350 84h-175v-119h175v119zM315 49v-49h-105v49h105zM350 -59h-175v-35h74l-74 -49v-35h175v35h-107l73 49h34v35z" />
    <glyph glyph-name="space" unicode=" " horiz-adv-x="329" 
 />
    <glyph glyph-name="exclam" unicode="!" horiz-adv-x="252" 
d="M133 205h-19l-33 471c0 12 29 33 42 33c11 0 42 -21 41 -33zM78 39c0 11 35 51 49 51c16 0 49 -40 49 -51s-32 -49 -49 -49c-14 0 -49 38 -49 49z" />
    <glyph glyph-name="quotesingle" unicode="'" horiz-adv-x="181" 
d="M120 632l-26 -174h-14l-24 174c-2 25 -8 74 31 74s37 -49 33 -74z" />
    <glyph glyph-name="quotedbl" unicode="&#x22;" horiz-adv-x="288" 
d="M118 795l6 -9c-2 0 -74 -44 -74 -93c0 -66 78 -51 78 -51c0 -27 -24 -66 -40 -66c-44 0 -75 41 -75 88c0 61 52 107 105 131zM261 795l6 -9c-2 0 -74 -44 -74 -93c0 -66 78 -51 78 -51c0 -27 -24 -66 -40 -66c-44 0 -75 41 -75 88c0 61 52 107 105 131z" />
    <glyph glyph-name="numbersign" unicode="#" horiz-adv-x="575" 
d="M541 427h-120l-22 -146h110v-40h-116l-37 -241h-42l37 241h-149l-37 -241h-42l37 241h-125v40h131l22 146h-120v40h126l36 233h42l-36 -233h149l36 233h42l-36 -233h114v-40zM357 281l22 146h-149l-22 -146h149z" />
    <glyph glyph-name="dollar" unicode="$" 
d="M262 706c77 0 148 -15 150 -14l8 -70l-9 -3s-59 66 -152 66v-291c96 -61 205 -124 205 -226c0 -156 -124 -177 -201 -177h-4v-61h-34v62c-90 4 -167 21 -168 22l-5 92l10 1s45 -76 163 -92v327c-86 54 -171 110 -171 202c0 125 105 154 171 160v65h34v-63h3zM118 553
c0 -54 47 -96 107 -136v265c-53 -10 -107 -51 -107 -129zM402 148c0 76 -68 125 -143 173v-309h10c70 0 133 56 133 136z" />
    <glyph glyph-name="percent" unicode="%" horiz-adv-x="619" 
d="M146 699c93 0 125 -95 125 -174c0 -76 -33 -172 -126 -172c-92 0 -127 94 -127 172c0 81 35 174 128 174zM530 693l-391 -693h-48l390 693h49zM145 679c-55 0 -73 -80 -73 -153c0 -69 18 -154 73 -154c56 0 70 87 70 154c0 74 -14 153 -70 153zM470 337
c92 0 125 -96 125 -173c0 -78 -34 -174 -126 -174c-93 0 -127 95 -127 174s34 173 128 173zM469 316c-56 0 -71 -80 -71 -151c0 -69 15 -155 71 -155c55 0 70 86 70 155c0 71 -15 151 -70 151z" />
    <glyph glyph-name="ampersand" unicode="&#x26;" horiz-adv-x="690" 
d="M672 12v-12h-107c-31 0 -46 13 -63 30l-49 48c-18 -19 -86 -90 -214 -90c-159 0 -221 120 -221 186c0 89 91 144 161 191c-56 64 -108 116 -108 189c0 94 97 152 197 152c127 0 172 -63 172 -118c0 -83 -114 -162 -197 -211l229 -244c2 1 58 52 58 155
c0 44 -29 73 -163 73v15h307v-18h-40c-45 0 -49 -36 -55 -57c-19 -63 -55 -138 -93 -183l66 -62c33 -31 59 -44 120 -44zM251 681c-73 0 -123 -47 -123 -100c0 -83 52 -131 99 -186c106 57 146 134 146 180c0 49 -56 106 -122 106zM266 23c105 0 154 51 171 69l-241 254
c-76 -53 -110 -90 -110 -152c0 -83 56 -171 180 -171z" />
    <glyph glyph-name="parenleft" unicode="(" horiz-adv-x="339" 
d="M295 -83l-14 -14c-126 127 -213 296 -213 480c0 185 88 354 213 480l14 -13c-111 -142 -165 -284 -165 -467s54 -324 165 -466z" />
    <glyph glyph-name="parenright" unicode=")" horiz-adv-x="344" 
d="M46 844l14 14c126 -127 213 -296 213 -480c0 -185 -88 -354 -213 -480l-14 13c111 142 165 284 165 467s-54 324 -165 466z" />
    <glyph glyph-name="asterisk" unicode="*" horiz-adv-x="374" 
d="M206 552h1l96 -89l-56 -41l-56 120l-56 -120l-57 41l96 89l-130 18l21 64l116 -63l-25 129h68l-24 -129l116 63l20 -64z" />
    <glyph glyph-name="plus" unicode="+" horiz-adv-x="522" 
d="M43 276h194v194h54v-194h194v-54h-194v-194h-54v194h-194v54z" />
    <glyph glyph-name="comma" unicode="," horiz-adv-x="241" 
d="M59 -179l-6 10c2 0 102 57 102 117c0 92 -103 51 -103 105c0 25 18 44 44 44c65 0 99 -65 99 -113c0 -76 -66 -132 -136 -163z" />
    <glyph glyph-name="hyphen" unicode="-" horiz-adv-x="321" 
d="M53 237v48h218v-48h-218z" />
    <glyph glyph-name="period" unicode="." horiz-adv-x="192" 
d="M57 36c0 10 31 45 43 45c14 0 43 -35 43 -45s-28 -43 -43 -43c-12 0 -43 33 -43 43z" />
    <glyph glyph-name="slash" unicode="/" horiz-adv-x="603" 
d="M59 -25l-39 25l528 812l39 -25z" />
    <glyph glyph-name="zero" unicode="0" horiz-adv-x="527" 
d="M264 706c159 0 232 -192 232 -357c0 -173 -73 -358 -232 -358c-160 0 -233 185 -233 358c0 165 73 357 233 357zM264 689c-121 0 -151 -176 -151 -340c0 -138 30 -342 151 -342c119 0 149 195 149 342c0 164 -30 340 -149 340z" />
    <glyph glyph-name="one" unicode="1" horiz-adv-x="393" 
d="M356 13v-13h-320v13c132 0 139 19 139 140v409c0 56 -35 79 -135 49c0 0 -4 12 -5 13c93 26 188 85 188 85h10v-559c0 -119 11 -137 123 -137z" />
    <glyph glyph-name="two" unicode="2" horiz-adv-x="509" 
d="M406 519c0 68 -25 159 -139 164h-3c-127 0 -114 -132 -152 -132c-20 0 -38 17 -38 37c0 35 80 117 185 117c110 0 217 -60 217 -184c0 -95 -27 -173 -222 -342l-175 -152l162 13c183 15 219 119 221 120l18 -7l-79 -153h-371l-5 11l171 178c91 94 210 198 210 330z" />
    <glyph glyph-name="three" unicode="3" horiz-adv-x="469" 
d="M168 428c114 5 267 -55 267 -204c0 -138 -113 -231 -273 -231c-66 0 -105 15 -105 48c0 19 18 37 38 37c38 0 61 -53 149 -53c67 0 132 79 132 158c0 111 -57 187 -216 187c-33 0 -81 0 -81 -4l-6 10l265 276h-182c-64 0 -104 -59 -104 -59s-8 4 -10 4c3 4 41 102 41 102
h344z" />
    <glyph glyph-name="four" unicode="4" horiz-adv-x="545" 
d="M495 13v-13h-294v13c79 0 113 11 113 122v93h-272l-6 12l278 460h60v-427s16 -1 45 3c76 10 89 85 90 85l13 -2l-46 -131h-102v-94c0 -97 7 -121 121 -121zM314 274v369l-222 -369h222z" />
    <glyph glyph-name="five" unicode="5" horiz-adv-x="464" 
d="M176 428c131 0 247 -55 247 -204c0 -138 -113 -231 -273 -231c-66 0 -105 15 -105 48c0 19 18 37 38 37c38 0 61 -53 149 -53c67 0 132 79 132 158c0 111 -48 186 -207 186c-65 0 -104 -7 -105 -7l85 338h215c42 0 65 25 74 38l8 -3l-52 -100h-198c-27 0 -34 -10 -39 -32
l-41 -179l-1 -1s33 5 73 5z" />
    <glyph glyph-name="six" unicode="6" horiz-adv-x="469" 
d="M229 14c88 0 139 94 139 201c0 65 -32 152 -125 152c-50 0 -91 -23 -92 -24l-6 10c0 1 55 47 116 47c107 0 180 -77 180 -181c0 -132 -85 -231 -208 -231c-118 0 -205 91 -205 244c0 329 360 484 360 484l11 -10s-295 -172 -295 -472c0 -122 41 -220 125 -220z" />
    <glyph glyph-name="seven" unicode="7" 
d="M185 651c-115 -14 -140 -97 -141 -102h-18l48 151h381l3 -7l-321 -711l-65 28c2 0 330 653 329 657c0 0 -121 -4 -216 -16z" />
    <glyph glyph-name="eight" unicode="8" horiz-adv-x="457" 
d="M243 705c144 0 183 -87 183 -142c0 -126 -139 -175 -162 -182c95 -52 171 -110 171 -210c0 -127 -109 -183 -205 -183c-107 0 -209 68 -209 185c0 126 119 172 160 186c-70 44 -126 118 -126 177c0 133 110 169 188 169zM245 684c-42 0 -114 -36 -114 -135
c0 -64 34 -111 113 -160c21 6 112 44 112 177c0 35 -19 118 -111 118zM93 186c0 -115 60 -176 125 -178c63 -1 138 43 138 161c0 89 -58 126 -156 181c-34 -13 -107 -57 -107 -164z" />
    <glyph glyph-name="nine" unicode="9" horiz-adv-x="472" 
d="M231 705c160 0 209 -120 209 -215c0 -426 -238 -499 -381 -499c0 0 1 20 0 20c147 0 298 91 298 360c0 0 -50 -79 -142 -79c-123 0 -184 97 -184 199c0 110 80 214 200 214zM235 685c-67 0 -130 -68 -130 -190c0 -98 42 -174 118 -174c75 0 143 71 143 178
c0 66 -28 186 -131 186z" />
    <glyph glyph-name="colon" unicode=":" horiz-adv-x="232" 
d="M74 460c0 10 31 45 43 45c14 0 43 -35 43 -45s-28 -43 -43 -43c-12 0 -43 33 -43 43zM74 33c0 10 31 45 43 45c14 0 43 -35 43 -45s-28 -43 -43 -43c-12 0 -43 33 -43 43z" />
    <glyph glyph-name="semicolon" unicode=";" horiz-adv-x="238" 
d="M64 459c0 10 31 45 43 45c14 0 43 -35 43 -45s-28 -43 -43 -43c-12 0 -43 33 -43 43zM48 -179l-6 10c2 0 102 57 102 117c0 92 -93 51 -93 105c0 25 24 44 50 44c47 0 83 -65 83 -113c0 -76 -66 -132 -136 -163z" />
    <glyph glyph-name="less" unicode="&#x3c;" horiz-adv-x="550" 
d="M48 216v57l464 207v-64l-403 -172l403 -182v-64z" />
    <glyph glyph-name="equal" unicode="=" horiz-adv-x="520" 
d="M38 351h443v-54h-443v54zM38 219h443v-54h-443v54z" />
    <glyph glyph-name="greater" unicode="&#x3e;" horiz-adv-x="547" 
d="M512 216v57l-462 207v-64l403 -172l-403 -182v-64z" />
    <glyph glyph-name="question" unicode="?" horiz-adv-x="440" 
d="M207 189h25c0 49 23 85 51 117c49 63 133 111 133 234c0 91 -71 159 -195 159c-106 0 -182 -81 -182 -171c0 -50 16 -71 37 -71c23 0 37 18 37 40c0 43 -14 50 -14 95c0 38 51 84 115 84c76 0 140 -50 140 -142c0 -98 -72 -153 -111 -218c-21 -36 -36 -74 -36 -127z
M170 40c0 11 36 52 50 52c16 0 49 -41 49 -52c0 -12 -32 -50 -49 -50c-14 0 -50 38 -50 50z" />
    <glyph glyph-name="at" unicode="@" horiz-adv-x="996" 
d="M645 485c65 0 144 -31 144 -32l-7 -26s-37 13 -73 20c-25 -90 -50 -195 -84 -327c-7 -27 -10 -46 -10 -70c0 -26 21 -60 59 -60c73 0 223 124 223 389c0 187 -152 295 -311 295c-221 0 -478 -190 -478 -524c0 -250 171 -363 356 -363c152 0 253 53 334 94l9 -18
c-100 -52 -188 -108 -386 -108c-167 0 -372 125 -372 391c0 360 282 553 546 553c190 0 359 -102 359 -322c0 -282 -186 -410 -301 -410c-55 0 -94 26 -94 79c0 34 31 120 45 171l-6 2c-41 -105 -82 -248 -230 -248c-76 0 -119 68 -119 129c0 189 154 385 387 385h9z
M315 134c0 -91 55 -114 94 -114c69 0 141 108 175 240l51 196c-188 0 -320 -176 -320 -322z" />
    <glyph glyph-name="A" unicode="A" horiz-adv-x="700" 
d="M184 700h357v-10s-158 -5 -139 -61l189 -558c12 -35 35 -60 91 -60v-11h-256v11c82 0 113 32 79 129l-39 111h-249l-42 -110c-34 -89 -15 -130 88 -130v-11h-245v11c60 0 93 44 121 120l190 508c0 49 -145 51 -145 51v10zM347 608l-115 -314h218z" />
    <glyph glyph-name="B" unicode="B" horiz-adv-x="572" 
d="M554 190c0 -168 -155 -190 -291 -190h-238v11c72 0 88 26 88 82v520c0 41 -16 76 -88 76v11h216c138 0 274 -28 274 -172c0 -93 -96 -161 -199 -161c85 0 238 -16 238 -177zM177 625v-532c0 -60 24 -69 97 -69c78 1 212 18 212 165c0 121 -104 169 -213 169h-64v16h47
c158 0 190 67 190 154c0 125 -96 145 -203 145h-23c-32 0 -43 -19 -43 -48z" />
    <glyph glyph-name="C" unicode="C" horiz-adv-x="678" 
d="M392 706c136 0 225 -46 225 -46l36 -223l-17 -5c2 4 -28 251 -251 251c-100 0 -285 -67 -285 -290c0 -278 174 -362 320 -362c152 0 229 52 229 52l9 -17s-90 -75 -261 -75c-186 0 -370 121 -370 362c0 258 211 353 365 353z" />
    <glyph glyph-name="D" unicode="D" horiz-adv-x="693" 
d="M312 0h-288v11c72 0 88 35 88 101v487c0 41 -16 90 -88 90v11l228 -1c246 -1 423 -78 423 -342c0 -265 -163 -357 -363 -357zM277 671h-52h-49l1 -560c0 -73 26 -88 95 -88c221 0 330 84 330 331c0 264 -182 317 -325 317z" />
    <glyph glyph-name="E" unicode="E" horiz-adv-x="583" 
d="M188 366h161c95 0 94 53 94 120h12v-271h-13c0 64 1 115 -93 115h-161l2 -310c150 0 188 12 242 31c68 24 103 60 120 85l6 -3c-1 -13 -15 -137 -152 -137c-124 0 -381 4 -381 4v11c44 0 102 3 102 76l1 508c0 82 -52 93 -103 93v12h488l40 -200l-12 -1s-19 169 -168 169
h-185v-302z" />
    <glyph glyph-name="F" unicode="F" horiz-adv-x="533" 
d="M151 367h182c74 0 72 61 72 120h13v-271h-12c0 51 1 114 -73 114h-182l1 -295l117 -25v-10h-249v11c45 0 70 33 70 76v509c0 71 -19 94 -70 94v11h456l40 -200l-12 -1s-22 171 -158 171h-195v-304z" />
    <glyph glyph-name="G" unicode="G" horiz-adv-x="683" 
d="M598 274l-202 36v16h258l2 -5s-30 -9 -30 -53c0 -49 37 -149 37 -149v-3s-108 -126 -279 -126c-177 0 -369 122 -369 362c0 274 215 354 368 354c136 0 236 -47 236 -47l32 -224l-15 -1c0 59 -50 248 -269 248c-91 0 -281 -70 -281 -293c0 -265 167 -362 312 -362
c93 0 168 34 200 63v184z" />
    <glyph glyph-name="H" unicode="H" horiz-adv-x="750" 
d="M458 0v12c78 0 126 16 126 104v220h-416v-220c0 -88 48 -104 126 -104v-12h-272v12c67 0 90 42 90 105v488c0 57 -20 81 -93 81l-1 13h276v-12c-77 0 -126 -16 -126 -98v-211h416v204c0 88 -48 105 -126 105v12h271v-12c-68 0 -91 -43 -91 -106v-488c0 -57 21 -81 93 -81
l1 -12h-274z" />
    <glyph glyph-name="I" unicode="I" horiz-adv-x="322" 
d="M192 596v-498c0 -79 50 -88 90 -88v-10h-242v10c39 0 93 10 93 94v492c0 85 -54 94 -93 94v10h242v-10c-41 0 -90 -9 -90 -94z" />
    <glyph glyph-name="J" unicode="J" horiz-adv-x="313" 
d="M121 9l3 583c0 87 -56 97 -96 97v10h250v-10c-42 0 -93 -10 -93 -97v-583c0 -182 -86 -200 -187 -230l-3 9c75 27 125 32 126 221z" />
    <glyph glyph-name="K" unicode="K" horiz-adv-x="682" 
d="M496 46c-44 43 -118 122 -194 203c-34 36 -70 88 -118 88v-222c0 -88 36 -105 114 -105v-12h-264v12c67 0 91 43 91 106v491c0 57 -21 82 -94 82l-1 12h268v-12c-76 0 -114 -16 -114 -99v-234h63l206 253c60 73 1 80 -51 80l-1 12h238v-14s-65 7 -130 -73l-216 -265
l280 -295c45 -48 92 -46 94 -45v-11c-4 -2 -108 -14 -171 48z" />
    <glyph glyph-name="L" unicode="L" horiz-adv-x="532" 
d="M25 689v12h247v-12c-62 0 -115 -19 -115 -93v-574c151 0 182 16 236 33c70 22 95 55 113 81l6 -3c-2 -13 -15 -137 -152 -137c-125 0 -335 4 -335 4v11c45 0 69 32 69 76l1 509c0 51 -11 93 -70 93z" />
    <glyph glyph-name="M" unicode="M" horiz-adv-x="930" 
d="M804 599l28 -500c4 -69 20 -88 88 -88v-12h-272v12c102 0 134 17 127 124l-33 486l-287 -630h-4l-266 615l-48 -474c-11 -105 34 -121 135 -121v-12h-262v12c68 0 84 42 91 105l49 465c7 69 -48 106 -120 106l-1 13h296l1 -12c-45 0 -100 -15 -84 -52l226 -529l239 529
c17 38 -43 51 -81 51l-1 13h269l1 -12c-42 0 -95 -22 -91 -89z" />
    <glyph glyph-name="N" unicode="N" horiz-adv-x="778" 
d="M650 109l-1 465c0 59 -37 115 -155 115v12h274v-12c-78 0 -82 -64 -82 -113l2 -606l-7 -1l-509 626l-3 -467c-1 -94 55 -116 145 -116v-12h-273v12c68 0 92 54 92 117v502c-16 30 -78 57 -122 57l-1 13h159z" />
    <glyph glyph-name="O" unicode="O" horiz-adv-x="761" 
d="M375 707c259 0 356 -201 356 -356c0 -209 -142 -357 -354 -357c-214 0 -347 156 -347 358c0 207 144 355 345 355zM367 682c-187 0 -269 -151 -269 -306c0 -157 81 -356 294 -356c195 0 267 158 267 314c0 190 -115 348 -292 348z" />
    <glyph glyph-name="P" unicode="P" horiz-adv-x="521" 
d="M173 635v-602l135 -19v-14h-288v11c72 0 88 32 88 88v513c0 41 -16 76 -88 76v11h217c139 0 269 -27 269 -175c0 -94 -45 -213 -308 -213l6 16c151 0 230 83 230 200c0 107 -81 145 -194 145h-30c-23 0 -37 -8 -37 -37z" />
    <glyph glyph-name="Q" unicode="Q" horiz-adv-x="806" 
d="M775 339c0 -211 -123 -334 -299 -360c0 0 173 -94 336 -94c85 0 171 11 171 11s8 -15 6 -15s-87 -27 -177 -27c-229 0 -421 99 -497 124c-163 51 -275 177 -275 367c0 225 150 361 368 361c216 0 367 -142 367 -367zM388 678c-191 0 -275 -163 -275 -312
c0 -173 69 -364 301 -364c200 0 288 161 288 320c0 224 -113 356 -314 356z" />
    <glyph glyph-name="R" unicode="R" horiz-adv-x="637" 
d="M697 -99l-1 -9c-69 0 -129 54 -162 107c-31 49 -109 171 -168 250c-34 44 -45 52 -114 52h-42v16h101c64 0 160 41 160 186c0 143 -112 168 -227 168h-25c-31 0 -40 -8 -40 -48v-529c0 -77 43 -82 137 -82v-12h-291v11c73 0 89 27 89 84v515c0 42 -16 78 -89 78v11h217
c140 0 299 -20 299 -193c0 -171 -161 -191 -161 -191c54 -19 164 -244 214 -313c65 -91 103 -101 103 -101z" />
    <glyph glyph-name="S" unicode="S" horiz-adv-x="512" 
d="M260 706c77 0 148 -15 150 -14l18 -180l-9 -3s-38 176 -168 176c-59 0 -135 -40 -135 -132c0 -146 346 -203 346 -385c0 -156 -124 -177 -201 -177c-105 0 -205 22 -206 23l-5 192l10 1s29 -195 207 -195c70 0 131 56 131 136c0 173 -346 210 -346 396
c0 153 156 162 208 162z" />
    <glyph glyph-name="T" unicode="T" horiz-adv-x="626" 
d="M55 700h517l39 -200l-14 -4s-15 177 -150 177h-62c-36 0 -43 -7 -43 -41v-534c0 -90 131 -84 131 -84v-14h-319v14s125 -4 125 85v533c0 35 -10 42 -44 42h-63c-111 0 -145 -178 -145 -180l-12 4z" />
    <glyph glyph-name="U" unicode="U" horiz-adv-x="743" 
d="M620 597v-487s-76 -122 -240 -122c-182 0 -267 122 -267 122v490c0 62 -16 89 -88 89v11h283v-14c-127 0 -132 -12 -132 -127v-315c0 -174 94 -222 206 -222c102 0 205 30 205 243v292c0 117 -34 129 -145 129v14h276v-14c-78 0 -98 -33 -98 -89z" />
    <glyph glyph-name="V" unicode="V" horiz-adv-x="714" 
d="M352 85l230 529c25 57 -15 75 -107 75v11h234v-11s-51 0 -78 -63l-289 -649h-17l-248 658c-21 55 -72 51 -72 51v14h257v-12c-62 0 -129 -19 -109 -71z" />
    <glyph glyph-name="W" unicode="W" horiz-adv-x="971" 
d="M352 91l112 262l-109 280c-22 57 -73 57 -73 57v10h196v-10c-52 0 -61 -27 -52 -50l81 -209l80 192c17 40 21 66 -71 66v11h191v-9s-52 -1 -79 -67l-100 -241l114 -285l205 525c19 50 2 66 -90 66v11h209v-9c0 -1 -52 -1 -78 -67l-258 -647h-12l-134 328l-143 -328h-16
l-248 656c-21 57 -72 56 -72 56v11h227v-10c-58 0 -98 -9 -83 -50z" />
    <glyph glyph-name="X" unicode="X" horiz-adv-x="700" 
d="M432 144l-98 166l-103 -167c-70 -115 -6 -131 64 -131v-12h-267v12c46 0 101 19 141 85l147 242c2 1 -179 289 -180 291c-42 51 -116 59 -116 59v10h299v-10c-79 -1 -135 -8 -99 -68l138 -229l138 231c36 60 -20 66 -112 66v10h279v-10s-89 -10 -123 -64l-164 -262
l167 -274c47 -77 135 -77 137 -77v-12h-277v12c77 0 97 16 29 132z" />
    <glyph glyph-name="Y" unicode="Y" horiz-adv-x="650" 
d="M293 108v218l-172 305c-32 57 -116 58 -116 58v11h293v-11c-79 0 -134 -5 -99 -67l147 -258l132 260c31 61 -21 66 -112 66v10h279v-10s-93 -8 -124 -64l-163 -300v-218c0 -88 29 -96 107 -96v-12h-279v12c78 0 107 8 107 96z" />
    <glyph glyph-name="Z" unicode="Z" horiz-adv-x="604" 
d="M45 495l41 205h498l-472 -674l242 11c138 6 177 49 211 195h14l-48 -232h-511l466 675l-226 -11c-123 -6 -171 -44 -200 -169h-15z" />
    <glyph glyph-name="bracketleft" unicode="[" horiz-adv-x="309" 
d="M270 798v-23l-156 -10v-983l156 -10v-23h-224c4 306 4 743 0 1049h224z" />
    <glyph glyph-name="backslash" unicode="\" horiz-adv-x="588" 
d="M544 -25l35 25l-523 812l-44 -25z" />
    <glyph glyph-name="bracketright" unicode="]" horiz-adv-x="318" 
d="M34 798v-23l156 -10v-983l-156 -10v-23h224c-4 306 -4 743 0 1049h-224z" />
    <glyph glyph-name="asciicircum" unicode="^" 
d="M117 408h-57l164 392h52l161 -392h-56l-132 331z" />
    <glyph glyph-name="underscore" unicode="_" horiz-adv-x="614" 
d="M57 0h500v-48h-500v48z" />
    <glyph glyph-name="grave" unicode="`" horiz-adv-x="325" 
d="M110 780c-4 5 -34 -3 -37 -7c-4 -4 -12 -33 -8 -36l182 -156l8 8z" />
    <glyph glyph-name="a" unicode="a" horiz-adv-x="464" 
d="M33 310v134s41 57 150 57c188 0 175 -184 173 -238l-5 -152c0 -103 96 -93 96 -93l2 -9l-160 -23l3 65s-66 -56 -137 -56c-76 0 -125 76 -125 119c0 74 49 90 113 115c58 23 152 51 152 108c0 45 -37 140 -117 140c-81 0 -130 -129 -133 -167h-12zM292 74l4 185
s-48 -23 -121 -53c-37 -15 -82 -35 -82 -78c0 -40 54 -94 104 -94c37 0 95 39 95 40z" />
    <glyph glyph-name="b" unicode="b" horiz-adv-x="540" 
d="M336 506c96 0 184 -100 184 -249c0 -156 -92 -257 -242 -257l-215 1v10c28 0 57 19 57 67l2 574c0 105 -38 87 -99 60c0 0 -7 11 -8 11l170 85l-1 -399c0 1 46 97 152 97zM274 28c167 0 185 156 185 218c0 104 -54 210 -152 210c-77 0 -129 -67 -129 -187v-143
c0 -77 19 -98 96 -98z" />
    <glyph glyph-name="c" unicode="c" horiz-adv-x="472" 
d="M276 503c95 0 149 -34 149 -34l2 -160h-12s-8 170 -161 170c-69 0 -155 -72 -155 -216c0 -174 100 -234 176 -234c109 0 160 84 160 84l12 -6s-64 -116 -181 -116s-236 66 -236 247c0 205 151 265 246 265z" />
    <glyph glyph-name="d" unicode="d" horiz-adv-x="554" 
d="M443 154c0 -121 2 -138 96 -134v-11l-158 -20v88c-1 -4 -65 -85 -163 -85c-61 0 -193 52 -193 242c0 210 141 270 227 270c83 0 130 -24 130 -24l1 177c0 105 -67 79 -119 58c0 0 -7 11 -8 11l187 87v-659zM382 114v217c0 91 -57 145 -129 145
c-138 0 -163 -153 -163 -227c0 -114 55 -209 167 -209c77 0 125 74 125 74z" />
    <glyph glyph-name="e" unicode="e" horiz-adv-x="466" 
d="M433 317c0 0 -326 1 -335 0c-20 -149 41 -283 181 -283c110 0 148 75 148 75l9 -7s-32 -112 -186 -112c-144 0 -220 125 -220 253c0 99 47 261 217 261c176 0 186 -187 186 -187zM246 474c-111 0 -141 -122 -141 -122h209c36 0 46 20 46 35c0 29 -29 87 -114 87z" />
    <glyph glyph-name="f" unicode="f" horiz-adv-x="407" 
d="M387 773c1 0 -1 -160 -1 -163l-12 1c1 0 -16 160 -103 160c-82 0 -103 -159 -103 -211c0 -40 2 -59 44 -59c37 0 65 2 107 7l-20 -44h-131v-337c0 -90 8 -117 106 -117v-10h-239v10c62 0 70 32 71 117v337c-31 0 -57 -6 -76 -10l18 48h58c0 175 64 301 196 301
c56 0 85 -30 85 -30z" />
    <glyph glyph-name="g" unicode="g" horiz-adv-x="520" 
d="M332 52c88 -17 173 -41 173 -84c0 -59 -102 -191 -243 -191c-111 0 -242 62 -242 125c0 58 49 102 144 132c0 0 -109 20 -109 53s42 64 90 90c-1 1 -97 38 -97 142c0 132 94 183 217 183l90 -1c131 -1 142 32 143 33l7 -5l-50 -68h-99c2 -1 59 -46 59 -115
c0 -100 -71 -186 -199 -186c-23 0 -43 5 -43 5s-58 -23 -58 -53c0 -20 32 -24 217 -60zM102 347c0 -79 70 -151 159 -151c74 0 98 44 98 123c0 55 -49 152 -146 152c-78 0 -111 -51 -111 -124zM293 -174c85 0 166 53 166 92c0 57 -107 96 -244 96c-77 0 -144 -33 -144 -84
c0 -56 153 -104 222 -104z" />
    <glyph glyph-name="h" unicode="h" horiz-adv-x="602" 
d="M503 137c1 -90 -3 -127 79 -127v-10h-238v10c99 0 99 40 98 127v141c0 77 -2 178 -93 178c-104 0 -164 -136 -162 -328l1 -93l100 -25v-10h-251v12c87 0 87 34 87 64v610c0 82 -104 26 -104 26s-4 11 -5 12c4 1 172 84 172 84l1 -519c0 46 31 215 177 215
c130 0 139 -120 139 -168z" />
    <glyph glyph-name="i" unicode="i" horiz-adv-x="285" 
d="M82 708c0 11 36 52 50 52c16 0 50 -41 50 -52c0 -12 -33 -50 -50 -50c-14 0 -50 38 -50 50zM177 509v-411c0 -56 1 -88 78 -88v-10h-218v10c76 0 78 32 78 88v294c0 86 -80 54 -80 54l-5 10z" />
    <glyph glyph-name="j" unicode="j" horiz-adv-x="300" 
d="M98 708c0 11 36 52 50 52c16 0 50 -41 50 -52c0 -12 -33 -50 -50 -50c-14 0 -50 38 -50 50zM145 78l3 265c0 95 -39 113 -102 101v9l164 54v-7l-1 -422c0 -160 -7 -239 -85 -292c-27 -19 -62 -46 -98 -46c-28 0 -31 16 -31 34c0 51 74 2 101 18c32 19 47 73 49 286z" />
    <glyph glyph-name="k" unicode="k" horiz-adv-x="548" 
d="M388 0c0 0 -145 218 -217 293v-204c0 -40 1 -79 91 -79v-10h-247v12c86 0 92 38 92 79l-1 610c0 68 -82 34 -82 34l-1 9c2 0 147 64 147 64s0 -256 1 -475h37l172 127l-117 30v11h230v-11s-51 1 -101 -51l-141 -146l178 -238c23 -26 49 -44 103 -45l1 -10h-145z" />
    <glyph glyph-name="l" unicode="l" horiz-adv-x="296" 
d="M119 118l-2 586c0 65 -82 32 -82 32l-1 9l146 63v-690c0 -98 19 -106 91 -106v-12h-246v12c70 0 94 10 94 106z" />
    <glyph glyph-name="m" unicode="m" horiz-adv-x="908" 
d="M17 424v12l158 70v-118c13 37 47 117 153 117c90 0 142 -42 158 -102c18 32 74 102 151 102c122 0 165 -67 165 -146c0 -78 2 -285 2 -285c0 -68 67 -64 89 -64v-10h-246v10c29 0 93 -3 93 65v272s5 108 -104 108c-75 0 -119 -42 -147 -70c2 -11 3 -23 3 -36
c0 -78 2 -276 2 -276c0 -68 76 -63 109 -63v-10h-265v10c32 0 95 0 95 65l-2 263c0 30 -9 118 -117 118c-99 0 -139 -67 -139 -183v-187c0 -35 5 -76 101 -76v-10h-261v10c26 0 98 -4 98 77v295c0 77 -96 42 -96 42z" />
    <glyph glyph-name="n" unicode="n" horiz-adv-x="603" 
d="M15 414v12l156 69v-117s33 126 155 126c132 0 171 -79 171 -157s2 -263 2 -263c0 -84 89 -74 89 -74v-10h-227v10s73 -5 73 77v250s10 117 -109 117c-97 0 -156 -65 -155 -209l1 -164c0 -71 91 -71 91 -71v-10h-245v10s96 -10 95 77l-3 302c-1 64 -94 25 -94 25z" />
    <glyph glyph-name="o" unicode="o" horiz-adv-x="527" 
d="M264 502c149 0 243 -126 243 -250c0 -165 -108 -257 -242 -257s-245 92 -245 255c0 128 86 252 244 252zM234 472c-71 0 -145 -68 -145 -197c0 -148 65 -252 207 -252c107 0 139 110 139 206c0 120 -39 243 -201 243z" />
    <glyph glyph-name="p" unicode="p" horiz-adv-x="584" 
d="M16 424l-1 13l160 69v-69s76 69 166 69c160 0 223 -115 223 -233c0 -169 -129 -286 -284 -286c-65 0 -105 18 -105 18l1 -215l155 -28v-12h-296l1 12c72 0 72 31 72 93v527c0 84 -92 42 -92 42zM175 400v-182c0 -136 47 -198 143 -198c139 0 176 144 176 230
c0 120 -53 215 -186 215c-85 0 -133 -65 -133 -65z" />
    <glyph glyph-name="q" unicode="q" horiz-adv-x="533" 
d="M383 460l56 44h11v-713l72 -30l1 -12h-306v12l165 30v288c-25 -36 -74 -84 -159 -84c-109 0 -203 95 -203 253c0 141 90 256 217 256c94 0 127 -27 146 -45v1zM237 479c-118 0 -150 -131 -150 -231c0 -77 41 -203 148 -203c84 0 126 37 147 67l1 165
c1 103 -27 202 -146 202z" />
    <glyph glyph-name="r" unicode="r" horiz-adv-x="417" 
d="M40 488v12h146s-1 -38 -1 -61c29 31 64 65 86 65c90 0 121 -43 121 -43l-4 -132l-10 1s-2 126 -105 126c-37 0 -65 -18 -88 -39v-382l119 -25v-10h-261v10s77 0 77 74v326c0 80 -80 78 -80 78z" />
    <glyph glyph-name="s" unicode="s" horiz-adv-x="397" 
d="M170 503c68 0 144 -14 145 -14l27 -110l-9 -5s-55 108 -165 108c-35 0 -71 -20 -71 -78c0 -122 270 -111 270 -274c0 -125 -124 -137 -172 -137c-78 0 -150 16 -151 16l-9 111l11 1c31 -48 83 -104 152 -104c52 0 108 22 108 95c0 142 -270 114 -270 287
c0 102 108 104 134 104z" />
    <glyph glyph-name="t" unicode="t" horiz-adv-x="353" 
d="M50 451l-5 23c5 6 79 132 81 138h13v-112h190l-32 -48h-157v-294c0 -76 10 -120 76 -120c51 0 110 42 110 42l7 -12s-81 -78 -149 -78c-106 0 -114 100 -110 159l20 302h-44z" />
    <glyph glyph-name="u" unicode="u" horiz-adv-x="562" 
d="M542 0h-135l1 107c-40 -41 -118 -114 -197 -114c-89 0 -119 57 -119 166v244c0 58 -37 49 -72 42v11l135 50v-342c0 -71 7 -122 75 -122c82 0 156 73 178 93l-1 256c0 86 -75 59 -112 53v12l172 50l1 -366c0 -99 14 -130 74 -130v-10z" />
    <glyph glyph-name="v" unicode="v" horiz-adv-x="556" 
d="M288 85l137 341c23 58 -21 63 -75 63v11h191v-11c-37 0 -62 -5 -89 -71l-172 -418h-26l-153 420c-25 69 -61 69 -86 69v11h234v-11c-69 0 -101 0 -78 -66z" />
    <glyph glyph-name="w" unicode="w" horiz-adv-x="766" 
d="M526 98l118 338c17 50 -17 53 -79 53v11h191v-11c-36 0 -61 0 -84 -64l-151 -425h-26l-109 343l-131 -343h-26l-137 425c-21 64 -70 64 -82 64v11h219v-11c-45 0 -87 -1 -71 -55l104 -345l109 297l-24 69c-11 29 -45 33 -71 34v11h211v-11c-50 0 -79 -10 -66 -53z" />
    <glyph glyph-name="x" unicode="x" horiz-adv-x="543" 
d="M365 63l-98 162l-102 -155c-32 -48 -16 -60 53 -60v-10h-198v10c52 0 81 16 102 48l127 189l-138 207s-22 35 -81 35l-1 11h225v-11c-61 0 -84 -7 -64 -40l95 -153l91 142c22 35 -1 50 -69 50v12h198v-12c-67 0 -86 -35 -86 -35l-116 -181l142 -221c13 -20 34 -41 78 -41
v-10h-199v10c49 0 68 8 41 53z" />
    <glyph glyph-name="y" unicode="y" horiz-adv-x="540" 
d="M217 -70l35 74l-163 424c-18 48 -42 61 -84 61v11h209v-11c-56 0 -76 -11 -58 -59l129 -353l114 353c15 46 0 59 -48 59v11h184v-11c-56 0 -66 -16 -83 -60l-226 -598c-15 -40 -31 -81 -83 -81h-111v12c84 0 124 39 185 168z" />
    <glyph glyph-name="z" unicode="z" horiz-adv-x="445" 
d="M36 359l30 141h359l-316 -479l170 11c101 7 129 127 129 127h10l-30 -159h-368l315 479l-150 -9c-112 -7 -139 -111 -139 -111h-10z" />
    <glyph glyph-name="braceleft" unicode="{" horiz-adv-x="286" 
d="M94 -86v227c0 90 -24 113 -74 134c63 19 74 57 74 146v210c0 126 34 169 142 166v-5c-59 -22 -85 -62 -85 -140v-208c0 -87 3 -150 -69 -168v-2c52 -6 69 -52 69 -155v-225c0 -78 26 -120 85 -142v-4c-108 -4 -142 41 -142 166z" />
    <glyph glyph-name="bar" unicode="|" horiz-adv-x="216" 
d="M80 0v800h54v-800h-54z" />
    <glyph glyph-name="braceright" unicode="}" horiz-adv-x="279" 
d="M165 -85v227c0 90 24 113 75 134c-64 19 -75 57 -75 146v210c0 126 -35 169 -145 166v-5c60 -22 86 -62 86 -140v-208c0 -87 -2 -150 71 -168v-2c-54 -6 -71 -52 -71 -155v-225c0 -78 -26 -120 -86 -142v-4c110 -4 145 41 145 166z" />
    <glyph glyph-name="asciitilde" unicode="~" horiz-adv-x="565" 
d="M389 254c42 0 89 27 110 59l38 -25c-32 -46 -85 -80 -147 -80c-37 0 -69 15 -102 31c-34 15 -68 30 -112 30c-47 0 -85 -31 -108 -67l-36 27c33 51 79 86 146 86s158 -61 211 -61z" />
    <glyph glyph-name="exclamdown" unicode="&#xa1;" horiz-adv-x="238" 
d="M75 743c0 -12 35 -54 49 -54c16 0 49 42 49 54c0 11 -32 46 -49 46c-14 0 -49 -35 -49 -46zM130 578h-19l-33 -545c0 -15 29 -34 42 -34c11 0 42 19 41 34z" />
    <glyph glyph-name="cent" unicode="&#xa2;" 
d="M237 597h38v-97c94 0 147 -34 147 -34l2 -160h-12s-7 152 -137 168v-445c107 2 157 84 157 84l12 -6s-60 -108 -169 -116v-90h-38v91c-108 9 -208 78 -210 246c-2 175 117 247 210 260v99zM96 263c0 -148 73 -214 141 -230v442c-66 -7 -141 -78 -141 -212z" />
    <glyph glyph-name="sterling" unicode="&#xa3;" horiz-adv-x="550" 
d="M522 122l-13 4c-24 -62 -63 -81 -93 -81c-41 0 -89 23 -158 23c-66 0 -135 -28 -138 -30c96 93 130 182 130 258v45h105v44h-104c4 96 8 172 12 198c8 56 39 113 65 113c120 0 111 -122 111 -122c1 0 17 -2 17 0c6 62 8 131 8 131c1 0 -43 26 -89 26
c-63 0 -118 -43 -151 -102c-41 -74 -42 -175 -42 -244h-84v-44h84l1 -70c2 -109 -78 -238 -154 -276l7 -14c68 27 119 37 183 37c71 0 115 -38 170 -38c99 0 133 141 133 142z" />
    <glyph glyph-name="currency" unicode="&#xa4;" 
d="M451 566l28 -30l-94 -89c23 -22 38 -72 39 -109c-2 -44 -13 -77 -38 -108l93 -87l-28 -35l-99 90c-28 -20 -69 -32 -105 -32c-39 0 -79 14 -104 36l-91 -91l-31 33l92 90c-21 26 -32 66 -32 103c0 42 14 81 39 106l-98 93l30 31l100 -94c27 24 68 34 108 34
c33 0 73 -13 94 -31zM252 207c65 0 116 50 116 130c0 76 -47 129 -116 129c-82 0 -119 -67 -119 -129c0 -66 39 -130 119 -130z" />
    <glyph glyph-name="yen" unicode="&#xa5;" horiz-adv-x="704" 
d="M393 700h279v-10s-93 -8 -124 -64l-163 -300v-60h109v-28h-109v-83h109v-28h-109v-19c0 -88 29 -96 107 -96v-12h-279v12c78 0 107 8 107 96v19h-107v28h107v83h-107v28h107v60l-172 305c-32 57 -116 58 -116 58v11h293v-11c-79 0 -134 -5 -99 -67l147 -258l132 260
c31 61 -21 66 -112 66v10z" />
    <glyph glyph-name="brokenbar" unicode="&#xa6;" horiz-adv-x="224" 
d="M81 349v350h54v-350h-54zM81 -151v350h54v-350h-54z" />
    <glyph glyph-name="section" unicode="&#xa7;" horiz-adv-x="449" 
d="M161 -7c-44 0 -72 12 -72 12c1 1 -7 147 -7 147l14 2c0 -36 20 -127 123 -127c26 0 61 23 61 59c0 53 -74 122 -124 172c-63 63 -118 123 -118 216c0 106 99 233 227 233c57 0 86 -22 86 -22c0 -13 -2 -117 -3 -117h-11s1 107 -118 107c-28 0 -53 -25 -53 -57
c0 -45 31 -75 127 -163c73 -69 115 -134 115 -213c0 -110 -92 -249 -247 -249zM197 307c88 -89 118 -152 118 -224c37 39 43 83 43 120c0 81 -38 137 -108 203c-96 90 -113 146 -113 220c-29 -26 -53 -68 -53 -113c0 -39 5 -99 113 -206z" />
    <glyph glyph-name="dieresis" unicode="&#xa8;" horiz-adv-x="437" 
d="M70 691c0 10 31 45 43 45c14 0 43 -35 43 -45s-28 -43 -43 -43c-12 0 -43 33 -43 43zM286 691c0 10 31 45 43 45c14 0 43 -35 43 -45s-28 -43 -43 -43c-12 0 -43 33 -43 43z" />
    <glyph glyph-name="copyright" unicode="&#xa9;" horiz-adv-x="886" 
d="M51 398c0 220 178 398 397 398c220 0 398 -178 398 -398c0 -219 -178 -397 -398 -397c-219 0 -397 178 -397 397zM97 398c0 -201 162 -356 351 -356c202 0 351 155 351 356c0 202 -149 357 -351 357c-201 0 -351 -155 -351 -357zM463 669c100 0 166 -39 166 -39l26 -164
l-12 -3c1 3 -32 183 -184 183c-73 0 -198 -49 -198 -212c0 -199 116 -256 224 -256c124 0 173 49 173 49l9 -11s-74 -77 -199 -77c-131 0 -271 89 -271 265c0 189 153 265 266 265z" />
    <glyph glyph-name="guillemotleft" unicode="&#xab;" horiz-adv-x="457" 
d="M48 249l193 179c4 0 7 -4 7 -8c0 -18 -95 -143 -119 -171c21 -22 123 -157 123 -168c0 -4 -3 -9 -8 -9zM213 249l193 179c4 0 7 -4 7 -8c0 -18 -95 -143 -119 -171c21 -22 123 -157 123 -168c0 -4 -3 -9 -8 -9z" />
    <glyph glyph-name="logicalnot" unicode="&#xac;" horiz-adv-x="566" 
d="M501 314v-276h-52v224h-391v52h443z" />
    <glyph glyph-name="registered" unicode="&#xae;" horiz-adv-x="854" 
d="M29 398c0 220 178 398 397 398c220 0 398 -178 398 -398c0 -219 -178 -397 -398 -397c-219 0 -397 178 -397 397zM75 398c0 -201 162 -356 351 -356c202 0 351 155 351 356c0 202 -149 357 -351 357c-201 0 -351 -155 -351 -357zM636 132l-3 -4c-23 3 -65 26 -94 71
c-22 34 -57 94 -97 149c-23 29 -23 35 -70 35h-30v12h69c51 0 96 54 96 127c0 79 -62 115 -141 115h-16c-23 0 -30 -6 -30 -32v-371c0 -54 30 -57 96 -57v-11h-208v10c50 0 60 19 60 58l1 358c0 29 -10 54 -60 54v10h155c97 0 200 -12 200 -132c0 -109 -104 -131 -104 -131
c36 -14 109 -167 141 -215c15 -24 35 -46 35 -46z" />
    <glyph glyph-name="macron" unicode="&#xaf;" horiz-adv-x="599" 
d="M409 625h-204c-11 13 -11 37 0 51h204c9 -14 10 -37 0 -51z" />
    <glyph glyph-name="degree" unicode="&#xb0;" horiz-adv-x="402" 
d="M344 649c0 -83 -68 -150 -150 -150c-83 0 -150 67 -150 150c-1 82 67 150 150 150c82 0 150 -68 150 -150zM304 649c0 60 -50 110 -111 110c-60 0 -110 -50 -109 -110c0 -61 49 -110 110 -110c60 0 110 49 110 110z" />
    <glyph glyph-name="plusminus" unicode="&#xb1;" horiz-adv-x="563" 
d="M59 352h194v148h54v-148h194v-54h-194v-148h-54v148h-194v54zM59 0v54h442v-54h-442z" />
    <glyph glyph-name="acute" unicode="&#xb4;" horiz-adv-x="308" 
d="M210 780c4 5 34 -3 38 -7s12 -33 8 -36l-187 -156l-8 8z" />
    <glyph glyph-name="paragraph" unicode="&#xb6;" horiz-adv-x="534" 
d="M330 777h-60v-777h-47v178c0 243 -170 224 -170 405c0 149 77 219 195 219h72l175 -9v-15c-127 0 -117 -23 -117 -185v-415c0 -147 11 -163 124 -163v-15h-172v777z" />
    <glyph glyph-name="periodcentered" unicode="&#xb7;" horiz-adv-x="250" 
d="M85 256c0 10 31 45 43 45c14 0 43 -35 43 -45s-28 -43 -43 -43c-12 0 -43 33 -43 43z" />
    <glyph glyph-name="cedilla" unicode="&#xb8;" horiz-adv-x="248" 
d="M122 0h18c-7 -9 -13 -25 -13 -32c0 -22 68 -46 68 -88c0 -37 -54 -91 -104 -91c-20 0 -48 9 -48 29c0 14 14 37 28 37s41 -34 60 -34c12 0 33 18 33 31c0 31 -81 66 -81 102c0 16 22 35 39 46z" />
    <glyph glyph-name="guillemotright" unicode="&#xbb;" horiz-adv-x="484" 
d="M263 249l-192 179c-4 0 -7 -4 -7 -8c0 -18 95 -143 118 -171c-21 -22 -122 -157 -122 -168c0 -4 3 -9 8 -9zM426 249l-192 179c-4 0 -6 -4 -6 -8c0 -18 94 -143 118 -171c-22 -22 -122 -157 -122 -168c0 -4 3 -9 7 -9z" />
    <glyph glyph-name="questiondown" unicode="&#xbf;" horiz-adv-x="431" 
d="M273 649c0 -9 -35 -51 -50 -51s-50 42 -50 51c0 16 35 50 50 50s50 -34 50 -50zM233 506h-20c0 -51 -25 -85 -55 -119c-45 -59 -131 -109 -131 -227c0 -93 70 -160 196 -160c106 0 181 84 181 169c0 50 -15 75 -40 75c-20 0 -35 -25 -35 -42c0 -42 15 -50 15 -93
c0 -42 -51 -83 -116 -83c-75 0 -141 50 -141 143c0 92 76 143 111 210c25 34 35 76 35 127z" />
    <glyph glyph-name="Agrave" unicode="&#xc0;" horiz-adv-x="700" 
d="M324 893c-4 5 -34 -3 -37 -7c-4 -4 -12 -33 -8 -36l152 -108l8 8zM184 700h357v-10s-158 -5 -139 -61l189 -558c12 -35 35 -57 91 -57v-14h-256v14c82 0 113 29 79 126l-39 111h-249l-42 -110c-34 -89 -15 -127 88 -127v-14h-245v14c60 0 93 41 121 117l190 508
c0 49 -145 50 -145 50v11zM347 608l-115 -314h218z" />
    <glyph glyph-name="Aacute" unicode="&#xc1;" horiz-adv-x="700" 
d="M400 895c4 5 33 -3 36 -7c4 -4 12 -33 8 -36l-149 -108l-8 8zM184 700h357v-10s-158 -5 -139 -61l189 -558c12 -35 35 -57 91 -57v-14h-256v14c82 0 113 29 79 126l-39 111h-249l-42 -110c-34 -89 -15 -127 88 -127v-14h-245v14c60 0 93 41 121 117l190 508
c0 49 -145 50 -145 50v11zM347 608l-115 -314h218z" />
    <glyph glyph-name="Acircumflex" unicode="&#xc2;" horiz-adv-x="700" 
d="M223 770l8 -6l129 110l128 -108l8 6l-84 116s-36 52 -52 52c-15 0 -52 -55 -52 -55zM184 700h357v-10s-158 -5 -139 -61l189 -558c12 -35 35 -57 91 -57v-14h-256v14c82 0 113 29 79 126l-39 111h-249l-42 -110c-34 -89 -15 -127 88 -127v-14h-245v14c60 0 93 41 121 117
l190 508c0 49 -145 50 -145 50v11zM347 608l-115 -314h218z" />
    <glyph glyph-name="Atilde" unicode="&#xc3;" horiz-adv-x="700" 
d="M264 843c-23 0 -73 -26 -73 -26l-4 10c26 18 84 55 115 55c36 0 108 -47 152 -47c40 0 87 43 87 43l6 -8c-32 -35 -86 -75 -135 -75c-41 0 -103 48 -148 48zM184 700h357v-10s-158 -5 -139 -61l189 -558c12 -35 35 -57 91 -57v-14h-256v14c82 0 113 29 79 126l-39 111
h-249l-42 -110c-34 -89 -15 -127 88 -127v-14h-245v14c60 0 93 41 121 117l190 508c0 49 -145 50 -145 50v11zM347 608l-115 -314h218z" />
    <glyph glyph-name="Adieresis" unicode="&#xc4;" horiz-adv-x="700" 
d="M223 801c0 10 31 45 43 45c14 0 43 -35 43 -45s-28 -43 -43 -43c-12 0 -43 33 -43 43zM419 801c0 10 31 45 43 45c14 0 43 -35 43 -45s-28 -43 -43 -43c-12 0 -43 33 -43 43zM184 700h357v-10s-158 -5 -139 -61l189 -558c12 -35 35 -57 91 -57v-14h-256v14
c82 0 113 29 79 126l-39 111h-249l-42 -110c-34 -89 -15 -127 88 -127v-14h-245v14c60 0 93 41 121 117l190 508c0 49 -145 50 -145 50v11zM347 608l-115 -314h218z" />
    <glyph glyph-name="Aring" unicode="&#xc5;" horiz-adv-x="700" 
d="M591 71c12 -35 35 -57 91 -57v-14h-256v14c82 0 113 29 79 126l-39 111h-249l-42 -110c-34 -89 -15 -127 88 -127v-14h-245v14c60 0 93 41 121 117l190 508c0 49 -145 50 -145 50v11h114c-17 16 -27 39 -27 64c0 48 40 88 88 88c49 0 89 -39 89 -88
c0 -25 -10 -48 -27 -64h120v-10s-158 -5 -139 -61zM303 764c0 -32 23 -64 56 -64c34 0 57 32 57 64c0 31 -23 63 -57 63c-33 0 -56 -32 -56 -63zM232 294h218l-103 314z" />
    <glyph glyph-name="AE" unicode="&#xc6;" horiz-adv-x="1065" 
d="M634 356h171c101 0 105 69 105 135h14l4 -305h-14c0 42 -7 128 -109 128h-171l1 -291c169 0 223 17 284 35c77 23 106 61 124 95l7 -3c-2 -15 -17 -154 -171 -154c-140 0 -386 4 -386 4h-12v16c71 0 94 14 94 82v215h-201l-120 -154c-66 -84 -72 -143 43 -143v-16h-275
v16c67 0 115 56 173 131l371 483c-20 53 -149 57 -163 57v13h596l45 -224l-13 -1s-22 190 -190 190h-207v-309zM403 358h172v219z" />
    <glyph glyph-name="Ccedilla" unicode="&#xc7;" horiz-adv-x="664" 
d="M388 706c136 0 225 -46 225 -46l36 -223l-17 -5c2 4 -28 251 -251 251c-100 0 -285 -67 -285 -290c0 -278 174 -362 320 -362c170 0 228 52 228 52l10 -17s-79 -67 -238 -75c-6 -9 -11 -22 -11 -28c0 -22 68 -46 68 -88c0 -37 -54 -91 -104 -91c-20 0 -48 9 -48 29
c0 14 14 37 28 37s41 -34 60 -34c12 0 33 18 33 31c0 31 -81 66 -81 102c0 16 22 35 33 42h-1c-186 0 -370 121 -370 362c0 258 211 353 365 353z" />
    <glyph glyph-name="Egrave" unicode="&#xc8;" horiz-adv-x="583" 
d="M248 893c-4 5 -34 -3 -37 -7c-4 -4 -12 -33 -8 -36l152 -108l8 8zM188 366h161c95 0 94 53 94 120h12v-271h-13c0 64 1 115 -93 115h-161l2 -310c150 0 188 12 242 31c68 24 103 60 120 85l6 -3c-1 -13 -15 -137 -152 -137c-124 0 -381 4 -381 4v11c44 0 102 3 102 76
l1 508c0 82 -52 93 -103 93v12h488l40 -200l-12 -1s-19 169 -168 169h-185v-302z" />
    <glyph glyph-name="Eacute" unicode="&#xc9;" horiz-adv-x="583" 
d="M324 895c4 5 33 -3 36 -7c4 -4 12 -33 8 -36l-149 -108l-8 8zM188 366h161c95 0 94 53 94 120h12v-271h-13c0 64 1 115 -93 115h-161l2 -310c150 0 188 12 242 31c68 24 103 60 120 85l6 -3c-1 -13 -15 -137 -152 -137c-124 0 -381 4 -381 4v11c44 0 102 3 102 76l1 508
c0 82 -52 93 -103 93v12h488l40 -200l-12 -1s-19 169 -168 169h-185v-302z" />
    <glyph glyph-name="Ecircumflex" unicode="&#xca;" horiz-adv-x="583" 
d="M137 770l8 -6l129 110l128 -108l8 6l-84 116s-36 52 -52 52c-15 0 -52 -55 -52 -55zM188 366h161c95 0 94 53 94 120h12v-271h-13c0 64 1 115 -93 115h-161l2 -310c150 0 188 12 242 31c68 24 103 60 120 85l6 -3c-1 -13 -15 -137 -152 -137c-124 0 -381 4 -381 4v11
c44 0 102 3 102 76l1 508c0 82 -52 93 -103 93v12h488l40 -200l-12 -1s-19 169 -168 169h-185v-302z" />
    <glyph glyph-name="Edieresis" unicode="&#xcb;" horiz-adv-x="583" 
d="M137 801c0 10 31 45 43 45c14 0 43 -35 43 -45s-28 -43 -43 -43c-12 0 -43 33 -43 43zM333 801c0 10 31 45 43 45c14 0 43 -35 43 -45s-28 -43 -43 -43c-12 0 -43 33 -43 43zM188 366h161c95 0 94 53 94 120h12v-271h-13c0 64 1 115 -93 115h-161l2 -310
c150 0 188 12 242 31c68 24 103 60 120 85l6 -3c-1 -13 -15 -137 -152 -137c-124 0 -381 4 -381 4v11c44 0 102 3 102 76l1 508c0 82 -52 93 -103 93v12h488l40 -200l-12 -1s-19 169 -168 169h-185v-302z" />
    <glyph glyph-name="Igrave" unicode="&#xcc;" horiz-adv-x="322" 
d="M132 893c-4 5 -34 -3 -37 -7c-4 -4 -12 -33 -8 -36l152 -108l8 8zM192 596v-498c0 -79 50 -88 90 -88v-10h-242v10c39 0 93 10 93 94v492c0 85 -54 94 -93 94v10h242v-10c-41 0 -90 -9 -90 -94z" />
    <glyph glyph-name="Iacute" unicode="&#xcd;" horiz-adv-x="322" 
d="M195 895c4 5 33 -3 36 -7c4 -4 12 -33 8 -36l-149 -108l-8 8zM192 596v-498c0 -79 50 -88 90 -88v-10h-242v10c39 0 93 10 93 94v492c0 85 -54 94 -93 94v10h242v-10c-41 0 -90 -9 -90 -94z" />
    <glyph glyph-name="Icircumflex" unicode="&#xce;" horiz-adv-x="353" 
d="M40 770l8 -6l129 110l128 -108l8 6l-84 116s-36 52 -52 52c-15 0 -52 -55 -52 -55zM202 596v-498c0 -79 50 -88 90 -88v-10h-242v10c39 0 93 10 93 94v492c0 85 -54 94 -93 94v10h242v-10c-41 0 -90 -9 -90 -94z" />
    <glyph glyph-name="Idieresis" unicode="&#xcf;" horiz-adv-x="362" 
d="M40 801c0 10 31 45 43 45c14 0 43 -35 43 -45s-28 -43 -43 -43c-12 0 -43 33 -43 43zM236 801c0 10 31 45 43 45c14 0 43 -35 43 -45s-28 -43 -43 -43c-12 0 -43 33 -43 43zM213 596v-498c0 -79 50 -88 90 -88v-10h-242v10c39 0 93 10 93 94v492c0 85 -54 94 -93 94v10
h242v-10c-41 0 -90 -9 -90 -94z" />
    <glyph glyph-name="Eth" unicode="&#xd0;" horiz-adv-x="713" 
d="M259 699c246 -1 423 -78 423 -342c0 -265 -163 -357 -363 -357h-288v11c72 0 88 35 88 101v224h-95v35h95v228c0 41 -16 90 -88 90v11zM279 23c221 0 330 84 330 331c0 264 -182 317 -325 317h-52h-49l1 -300h143v-35h-143v-225c0 -73 26 -88 95 -88z" />
    <glyph glyph-name="Ntilde" unicode="&#xd1;" horiz-adv-x="784" 
d="M292 843c-23 0 -73 -26 -73 -26l-4 10c26 18 84 55 115 55c36 0 108 -47 152 -47c40 0 87 43 87 43l6 -8c-32 -35 -86 -75 -135 -75c-41 0 -103 48 -148 48zM641 109l-1 465c0 59 -37 115 -155 115v12h274v-12c-78 0 -82 -64 -82 -113l2 -606l-7 -1l-509 626l-3 -467
c-1 -94 55 -116 145 -116v-12h-273v12c68 0 92 54 92 117v502c-16 30 -78 57 -122 57l-1 13h159z" />
    <glyph glyph-name="Ograve" unicode="&#xd2;" horiz-adv-x="761" 
d="M347 893c-4 5 -34 -3 -37 -7c-4 -4 -12 -33 -8 -36l152 -108l8 8zM375 707c259 0 356 -201 356 -356c0 -209 -142 -357 -354 -357c-214 0 -347 156 -347 358c0 207 144 355 345 355zM367 682c-187 0 -269 -151 -269 -306c0 -157 81 -356 294 -356c195 0 267 158 267 314
c0 190 -115 348 -292 348z" />
    <glyph glyph-name="Oacute" unicode="&#xd3;" horiz-adv-x="761" 
d="M399 895c4 5 33 -3 36 -7c4 -4 12 -33 8 -36l-149 -108l-8 8zM375 707c259 0 356 -201 356 -356c0 -209 -142 -357 -354 -357c-214 0 -347 156 -347 358c0 207 144 355 345 355zM367 682c-187 0 -269 -151 -269 -306c0 -157 81 -356 294 -356c195 0 267 158 267 314
c0 190 -115 348 -292 348z" />
    <glyph glyph-name="Ocircumflex" unicode="&#xd4;" horiz-adv-x="761" 
d="M238 770l8 -6l129 110l128 -108l8 6l-84 116s-36 52 -52 52c-15 0 -52 -55 -52 -55zM375 707c259 0 356 -201 356 -356c0 -209 -142 -357 -354 -357c-214 0 -347 156 -347 358c0 207 144 355 345 355zM367 682c-187 0 -269 -151 -269 -306c0 -157 81 -356 294 -356
c195 0 267 158 267 314c0 190 -115 348 -292 348z" />
    <glyph glyph-name="Otilde" unicode="&#xd5;" horiz-adv-x="761" 
d="M289 843c-23 0 -73 -26 -73 -26l-4 10c26 18 84 55 115 55c36 0 108 -47 152 -47c40 0 87 43 87 43l6 -8c-32 -35 -86 -75 -135 -75c-41 0 -103 48 -148 48zM375 707c259 0 356 -201 356 -356c0 -209 -142 -357 -354 -357c-214 0 -347 156 -347 358
c0 207 144 355 345 355zM367 682c-187 0 -269 -151 -269 -306c0 -157 81 -356 294 -356c195 0 267 158 267 314c0 190 -115 348 -292 348z" />
    <glyph glyph-name="Odieresis" unicode="&#xd6;" horiz-adv-x="761" 
d="M230 801c0 10 31 45 43 45c14 0 43 -35 43 -45s-28 -43 -43 -43c-12 0 -43 33 -43 43zM426 801c0 10 31 45 43 45c14 0 43 -35 43 -45s-28 -43 -43 -43c-12 0 -43 33 -43 43zM375 707c259 0 356 -201 356 -356c0 -209 -142 -357 -354 -357c-214 0 -347 156 -347 358
c0 207 144 355 345 355zM367 682c-187 0 -269 -151 -269 -306c0 -157 81 -356 294 -356c195 0 267 158 267 314c0 190 -115 348 -292 348z" />
    <glyph glyph-name="multiply" unicode="&#xd7;" horiz-adv-x="438" 
d="M32 83l156 156l-156 155l33 32l155 -155l156 155l32 -32l-155 -155l155 -156l-32 -32l-156 155l-155 -155z" />
    <glyph glyph-name="Oslash" unicode="&#xd8;" horiz-adv-x="757" 
d="M375 706c90 0 160 -24 214 -62l45 54l26 -22l-45 -54c82 -72 116 -180 116 -272c0 -209 -142 -357 -354 -357c-90 0 -166 28 -224 75l-57 -69l-26 21l59 71c-64 64 -99 156 -99 260c0 207 144 355 345 355zM367 681c-187 0 -269 -151 -269 -306c0 -79 21 -169 69 -239
l389 468c-49 48 -113 77 -189 77zM659 333c0 95 -29 182 -80 246l-391 -470c46 -54 113 -90 204 -90c195 0 267 158 267 314z" />
    <glyph glyph-name="Ugrave" unicode="&#xd9;" horiz-adv-x="743" 
d="M334 893c-4 5 -34 -3 -37 -7c-4 -4 -12 -33 -8 -36l152 -108l8 8zM620 597v-487s-76 -122 -240 -122c-182 0 -267 122 -267 122v490c0 62 -16 89 -88 89v11h283v-14c-127 0 -132 -12 -132 -127v-315c0 -174 94 -222 206 -222c102 0 205 30 205 243v292
c0 117 -34 129 -145 129v14h276v-14c-78 0 -98 -33 -98 -89z" />
    <glyph glyph-name="Uacute" unicode="&#xda;" horiz-adv-x="743" 
d="M408 895c4 5 33 -3 36 -7c4 -4 12 -33 8 -36l-149 -108l-8 8zM620 597v-487s-76 -122 -240 -122c-182 0 -267 122 -267 122v490c0 62 -16 89 -88 89v11h283v-14c-127 0 -132 -12 -132 -127v-315c0 -174 94 -222 206 -222c102 0 205 30 205 243v292
c0 117 -34 129 -145 129v14h276v-14c-78 0 -98 -33 -98 -89z" />
    <glyph glyph-name="Ucircumflex" unicode="&#xdb;" horiz-adv-x="743" 
d="M238 770l8 -6l129 110l128 -108l8 6l-84 116s-36 52 -52 52c-15 0 -52 -55 -52 -55zM620 597v-487s-76 -122 -240 -122c-182 0 -267 122 -267 122v490c0 62 -16 89 -88 89v11h283v-14c-127 0 -132 -12 -132 -127v-315c0 -174 94 -222 206 -222c102 0 205 30 205 243v292
c0 117 -34 129 -145 129v14h276v-14c-78 0 -98 -33 -98 -89z" />
    <glyph glyph-name="Udieresis" unicode="&#xdc;" horiz-adv-x="743" 
d="M236 801c0 10 31 45 43 45c14 0 43 -35 43 -45s-28 -43 -43 -43c-12 0 -43 33 -43 43zM432 801c0 10 31 45 43 45c14 0 43 -35 43 -45s-28 -43 -43 -43c-12 0 -43 33 -43 43zM620 597v-487s-76 -122 -240 -122c-182 0 -267 122 -267 122v490c0 62 -16 89 -88 89v11h283
v-14c-127 0 -132 -12 -132 -127v-315c0 -174 94 -222 206 -222c102 0 205 30 205 243v292c0 117 -34 129 -145 129v14h276v-14c-78 0 -98 -33 -98 -89z" />
    <glyph glyph-name="Yacute" unicode="&#xdd;" horiz-adv-x="688" 
d="M406 895c4 5 33 -3 36 -7c4 -4 12 -33 8 -36l-149 -108l-8 8zM312 108v218l-172 305c-32 57 -116 58 -116 58v11h293v-11c-79 0 -134 -5 -99 -67l147 -258l132 260c31 61 -21 66 -112 66v10h279v-10s-93 -8 -124 -64l-163 -300v-218c0 -88 29 -96 107 -96v-12h-279v12
c78 0 107 8 107 96z" />
    <glyph glyph-name="Thorn" unicode="&#xde;" horiz-adv-x="555" 
d="M162 171v314c0 181 -1 200 -129 200v15h326v-15c-141 0 -138 -15 -138 -185c253 0 301 -79 301 -144c0 -127 -110 -164 -231 -169l-2 12c94 10 170 43 170 147c0 106 -134 133 -238 133v-308c0 -126 1 -156 138 -156v-15h-326v15c124 0 129 31 129 156z" />
    <glyph glyph-name="germandbls" unicode="&#xdf;" horiz-adv-x="544" 
d="M168 461v-460h-148v16h28c45 0 63 12 63 102v343c0 128 29 337 223 337c105 0 169 -78 169 -147c0 -65 -37 -98 -82 -127c-70 -48 -122 -68 -122 -96c0 -81 224 -155 224 -291c0 -93 -84 -145 -164 -145c-47 0 -104 16 -116 38c-6 14 2 52 29 52c28 0 53 -70 98 -70
c36 0 108 33 108 94c0 102 -226 195 -226 288c0 84 188 131 188 239c0 66 -70 138 -141 138c-105 0 -131 -136 -131 -311z" />
    <glyph glyph-name="agrave" unicode="&#xe0;" horiz-adv-x="464" 
d="M145 704c-4 5 -34 -3 -37 -7c-4 -4 -12 -33 -8 -36l178 -121l8 8zM33 310v134s41 57 150 57c188 0 175 -184 173 -238l-5 -152c0 -103 96 -93 96 -93l2 -9l-160 -23l3 65s-66 -56 -137 -56c-76 0 -125 76 -125 119c0 74 49 90 113 115c58 23 152 51 152 108
c0 45 -37 140 -117 140c-81 0 -130 -129 -133 -167h-12zM292 74l4 185s-48 -23 -121 -53c-37 -15 -82 -35 -82 -78c0 -40 54 -94 104 -94c37 0 95 39 95 40z" />
    <glyph glyph-name="aacute" unicode="&#xe1;" horiz-adv-x="464" 
d="M240 704c4 5 34 -3 37 -7c4 -4 12 -33 8 -36l-179 -121l-8 8zM33 310v134s41 57 150 57c188 0 175 -184 173 -238l-5 -152c0 -103 96 -93 96 -93l2 -9l-160 -23l3 65s-66 -56 -137 -56c-76 0 -125 76 -125 119c0 74 49 90 113 115c58 23 152 51 152 108
c0 45 -37 140 -117 140c-81 0 -130 -129 -133 -167h-12zM292 74l4 185s-48 -23 -121 -53c-37 -15 -82 -35 -82 -78c0 -40 54 -94 104 -94c37 0 95 39 95 40z" />
    <glyph glyph-name="acircumflex" unicode="&#xe2;" horiz-adv-x="464" 
d="M53 543l7 -5l132 107l133 -105l8 5l-93 121s-34 46 -48 46s-48 -46 -48 -46zM33 310v134s41 57 150 57c188 0 175 -184 173 -238l-5 -152c0 -103 96 -93 96 -93l2 -9l-160 -23l3 65s-66 -56 -137 -56c-76 0 -125 76 -125 119c0 74 49 90 113 115c58 23 152 51 152 108
c0 45 -37 140 -117 140c-81 0 -130 -129 -133 -167h-12zM292 74l4 185s-48 -23 -121 -53c-37 -15 -82 -35 -82 -78c0 -40 54 -94 104 -94c37 0 95 39 95 40z" />
    <glyph glyph-name="atilde" unicode="&#xe3;" horiz-adv-x="466" 
d="M107 660c-23 0 -73 -26 -73 -26l-4 10c26 18 84 55 115 55c36 0 88 -47 132 -47c40 0 87 43 87 43l6 -8c-32 -35 -86 -75 -135 -75c-41 0 -83 48 -128 48zM35 310v134s41 57 150 57c188 0 175 -184 173 -238l-5 -152c0 -103 96 -93 96 -93l2 -9l-160 -23l3 65
s-66 -56 -137 -56c-76 0 -125 76 -125 119c0 74 49 90 113 115c58 23 152 51 152 108c0 45 -37 140 -117 140c-81 0 -130 -129 -133 -167h-12zM294 74l4 185s-48 -23 -121 -53c-37 -15 -82 -35 -82 -78c0 -40 54 -94 104 -94c37 0 95 39 95 40z" />
    <glyph glyph-name="adieresis" unicode="&#xe4;" horiz-adv-x="464" 
d="M38 656c0 10 31 45 43 45c14 0 43 -35 43 -45s-28 -43 -43 -43c-12 0 -43 33 -43 43zM254 656c0 10 31 45 43 45c14 0 43 -35 43 -45s-28 -43 -43 -43c-12 0 -43 33 -43 43zM33 310v134s41 57 150 57c188 0 175 -184 173 -238l-5 -152c0 -103 96 -93 96 -93l2 -9
l-160 -23l3 65s-66 -56 -137 -56c-76 0 -125 76 -125 119c0 74 49 90 113 115c58 23 152 51 152 108c0 45 -37 140 -117 140c-81 0 -130 -129 -133 -167h-12zM292 74l4 185s-48 -23 -121 -53c-37 -15 -82 -35 -82 -78c0 -40 54 -94 104 -94c37 0 95 39 95 40z" />
    <glyph glyph-name="aring" unicode="&#xe5;" horiz-adv-x="464" 
d="M271 644c0 -49 -40 -89 -89 -89c-48 0 -88 40 -88 89c0 48 40 88 88 88c49 0 89 -39 89 -88zM239 644c0 31 -23 63 -57 63c-33 0 -56 -32 -56 -63c0 -32 23 -64 56 -64c34 0 57 32 57 64zM33 310v134s41 57 150 57c188 0 175 -184 173 -238l-5 -152c0 -103 96 -93 96 -93
l2 -9l-160 -23l3 65s-66 -56 -137 -56c-76 0 -125 76 -125 119c0 74 49 90 113 115c58 23 152 51 152 108c0 45 -37 140 -117 140c-81 0 -130 -129 -133 -167h-12zM292 74l4 185s-48 -23 -121 -53c-37 -15 -82 -35 -82 -78c0 -40 54 -94 104 -94c37 0 95 39 95 40z" />
    <glyph glyph-name="ae" unicode="&#xe6;" horiz-adv-x="720" 
d="M31 310v134s41 57 150 57c89 0 133 -41 154 -90c33 53 87 93 172 93c176 0 186 -187 186 -187s-326 1 -335 0c-20 -149 41 -283 181 -283c110 0 148 75 148 75l9 -7s-32 -112 -186 -112c-79 0 -138 38 -175 93l-45 -32s-66 -56 -137 -56c-76 0 -125 76 -125 119
c0 74 49 90 113 115c58 23 152 51 152 108c0 45 -37 140 -117 140c-81 0 -130 -129 -133 -167h-12zM506 474c-111 0 -141 -122 -141 -122h209c36 0 46 20 46 35c0 29 -29 87 -114 87zM91 128c0 -40 54 -94 104 -94c31 0 105 49 130 67c-23 42 -35 92 -35 142v14
c-12 -6 -56 -26 -117 -51c-37 -15 -82 -35 -82 -78z" />
    <glyph glyph-name="ccedilla" unicode="&#xe7;" horiz-adv-x="468" 
d="M273 490c95 0 149 -34 149 -34l2 -160h-12s-8 170 -161 170c-69 0 -155 -59 -155 -203c0 -174 100 -234 176 -234c109 0 160 84 160 84l12 -6s-64 -116 -181 -116c-6 0 -12 0 -18 1c-7 -9 -13 -24 -13 -31c0 -22 68 -46 68 -88c0 -37 -54 -91 -104 -91
c-20 0 -48 9 -48 29c0 14 14 37 28 37s41 -34 60 -34c12 0 33 18 33 31c0 31 -81 66 -81 102c0 16 22 35 39 46c-104 13 -198 82 -200 245c-2 199 151 252 246 252z" />
    <glyph glyph-name="egrave" unicode="&#xe8;" horiz-adv-x="466" 
d="M197 704c-4 5 -34 -3 -37 -7c-4 -4 -12 -33 -8 -36l178 -121l8 8zM433 317c0 0 -326 1 -335 0c-20 -149 41 -283 181 -283c110 0 148 75 148 75l9 -7s-32 -112 -186 -112c-144 0 -220 125 -220 253c0 99 47 261 217 261c176 0 186 -187 186 -187zM246 474
c-111 0 -141 -122 -141 -122h209c36 0 46 20 46 35c0 29 -29 87 -114 87z" />
    <glyph glyph-name="eacute" unicode="&#xe9;" horiz-adv-x="466" 
d="M291 704c4 5 34 -3 37 -7c4 -4 12 -33 8 -36l-179 -121l-8 8zM433 317c0 0 -326 1 -335 0c-20 -149 41 -283 181 -283c110 0 148 75 148 75l9 -7s-32 -112 -186 -112c-144 0 -220 125 -220 253c0 99 47 261 217 261c176 0 186 -187 186 -187zM246 474
c-111 0 -141 -122 -141 -122h209c36 0 46 20 46 35c0 29 -29 87 -114 87z" />
    <glyph glyph-name="ecircumflex" unicode="&#xea;" horiz-adv-x="466" 
d="M107 543l7 -5l132 107l133 -105l8 5l-93 121s-34 46 -48 46s-48 -46 -48 -46zM433 317c0 0 -326 1 -335 0c-20 -149 41 -283 181 -283c110 0 148 75 148 75l9 -7s-32 -112 -186 -112c-144 0 -220 125 -220 253c0 99 47 261 217 261c176 0 186 -187 186 -187zM246 474
c-111 0 -141 -122 -141 -122h209c36 0 46 20 46 35c0 29 -29 87 -114 87z" />
    <glyph glyph-name="edieresis" unicode="&#xeb;" horiz-adv-x="466" 
d="M95 656c0 10 31 45 43 45c14 0 43 -35 43 -45s-28 -43 -43 -43c-12 0 -43 33 -43 43zM311 656c0 10 31 45 43 45c14 0 43 -35 43 -45s-28 -43 -43 -43c-12 0 -43 33 -43 43zM433 317c0 0 -326 1 -335 0c-20 -149 41 -283 181 -283c110 0 148 75 148 75l9 -7
s-32 -112 -186 -112c-144 0 -220 125 -220 253c0 99 47 261 217 261c176 0 186 -187 186 -187zM246 474c-111 0 -141 -122 -141 -122h209c36 0 46 20 46 35c0 29 -29 87 -114 87z" />
    <glyph glyph-name="igrave" unicode="&#xec;" horiz-adv-x="285" 
d="M89 704c-4 5 -34 -3 -37 -7c-4 -4 -12 -33 -8 -36l178 -121l8 8zM177 509v-411c0 -56 1 -88 78 -88v-10h-218v10c76 0 78 32 78 88v294c0 86 -80 54 -80 54l-5 10z" />
    <glyph glyph-name="iacute" unicode="&#xed;" horiz-adv-x="291" 
d="M172 704c4 5 34 -3 37 -7c4 -4 12 -33 8 -36l-179 -121l-8 8zM183 509v-411c0 -56 1 -88 78 -88v-10h-218v10c76 0 78 32 78 88v294c0 86 -80 54 -80 54l-5 10z" />
    <glyph glyph-name="icircumflex" unicode="&#xee;" horiz-adv-x="316" 
d="M30 557l7 -5l121 93l120 -89l8 5l-80 105s-34 46 -48 46s-48 -46 -48 -46zM205 509v-411c0 -56 1 -88 78 -88v-10h-218v10c76 0 78 32 78 88v294c0 86 -80 54 -80 54l-5 10z" />
    <glyph glyph-name="idieresis" unicode="&#xef;" horiz-adv-x="332" 
d="M30 656c0 10 31 45 43 45c14 0 43 -35 43 -45s-28 -43 -43 -43c-12 0 -43 33 -43 43zM216 656c0 10 31 45 43 45c14 0 43 -35 43 -45s-28 -43 -43 -43c-12 0 -43 33 -43 43zM211 509v-411c0 -56 1 -88 78 -88v-10h-218v10c76 0 78 32 78 88v294c0 86 -80 54 -80 54l-5 10
z" />
    <glyph glyph-name="eth" unicode="&#xf0;" 
d="M282 591c90 -79 178 -198 178 -359c0 -153 -89 -244 -210 -244c-126 0 -213 99 -213 231c0 104 75 181 184 181c63 0 119 -46 119 -47l-6 -10c-1 1 -43 24 -94 24c-96 0 -128 -87 -128 -152c0 -107 52 -201 142 -201c86 0 128 98 128 220c0 138 -64 249 -133 329l-77 -66
l-21 26l75 65c-74 77 -146 118 -146 118l11 10s79 -33 164 -102l83 72l23 -27z" />
    <glyph glyph-name="ntilde" unicode="&#xf1;" horiz-adv-x="628" 
d="M223 660c-23 0 -73 -26 -73 -26l-4 10c26 18 84 55 115 55c36 0 88 -47 132 -47c40 0 87 43 87 43l6 -8c-32 -35 -86 -75 -135 -75c-41 0 -83 48 -128 48zM26 414v12l156 69v-117s33 126 155 126c132 0 171 -79 171 -157s2 -263 2 -263c0 -84 89 -74 89 -74v-10h-227v10
s73 -5 73 77v250s10 117 -109 117c-97 0 -156 -65 -155 -209l1 -164c0 -71 91 -71 91 -71v-10h-245v10s96 -10 95 77l-3 302c-1 64 -94 25 -94 25z" />
    <glyph glyph-name="ograve" unicode="&#xf2;" horiz-adv-x="527" 
d="M209 704c-4 5 -34 -3 -37 -7c-4 -4 -12 -33 -8 -36l178 -121l8 8zM264 502c149 0 243 -126 243 -250c0 -165 -108 -257 -242 -257s-245 92 -245 255c0 128 86 252 244 252zM234 472c-71 0 -145 -68 -145 -197c0 -148 65 -252 207 -252c107 0 139 110 139 206
c0 120 -39 243 -201 243z" />
    <glyph glyph-name="oacute" unicode="&#xf3;" horiz-adv-x="527" 
d="M303 704c4 5 34 -3 37 -7c4 -4 12 -33 8 -36l-179 -121l-8 8zM264 502c149 0 243 -126 243 -250c0 -165 -108 -257 -242 -257s-245 92 -245 255c0 128 86 252 244 252zM234 472c-71 0 -145 -68 -145 -197c0 -148 65 -252 207 -252c107 0 139 110 139 206
c0 120 -39 243 -201 243z" />
    <glyph glyph-name="ocircumflex" unicode="&#xf4;" horiz-adv-x="527" 
d="M126 543l7 -5l132 107l133 -105l8 5l-93 121s-34 46 -48 46s-48 -46 -48 -46zM264 502c149 0 243 -126 243 -250c0 -165 -108 -257 -242 -257s-245 92 -245 255c0 128 86 252 244 252zM234 472c-71 0 -145 -68 -145 -197c0 -148 65 -252 207 -252c107 0 139 110 139 206
c0 120 -39 243 -201 243z" />
    <glyph glyph-name="otilde" unicode="&#xf5;" horiz-adv-x="527" 
d="M178 660c-23 0 -73 -26 -73 -26l-4 10c26 18 84 55 115 55c36 0 88 -47 132 -47c40 0 87 43 87 43l6 -8c-32 -35 -86 -75 -135 -75c-41 0 -83 48 -128 48zM264 502c149 0 243 -126 243 -250c0 -165 -108 -257 -242 -257s-245 92 -245 255c0 128 86 252 244 252zM234 472
c-71 0 -145 -68 -145 -197c0 -148 65 -252 207 -252c107 0 139 110 139 206c0 120 -39 243 -201 243z" />
    <glyph glyph-name="odieresis" unicode="&#xf6;" horiz-adv-x="527" 
d="M113 656c0 10 31 45 43 45c14 0 43 -35 43 -45s-28 -43 -43 -43c-12 0 -43 33 -43 43zM329 656c0 10 31 45 43 45c14 0 43 -35 43 -45s-28 -43 -43 -43c-12 0 -43 33 -43 43zM264 502c149 0 243 -126 243 -250c0 -165 -108 -257 -242 -257s-245 92 -245 255
c0 128 86 252 244 252zM234 472c-71 0 -145 -68 -145 -197c0 -148 65 -252 207 -252c107 0 139 110 139 206c0 120 -39 243 -201 243z" />
    <glyph glyph-name="divide" unicode="&#xf7;" 
d="M203 420c0 11 36 52 50 52c16 0 50 -41 50 -52c0 -12 -33 -51 -50 -51c-14 0 -50 39 -50 51zM29 266h442v-50h-442v50zM203 71c0 11 36 52 50 52c16 0 50 -41 50 -52c0 -12 -33 -51 -50 -51c-14 0 -50 39 -50 51z" />
    <glyph glyph-name="oslash" unicode="&#xf8;" horiz-adv-x="540" 
d="M277 502c58 0 108 -19 147 -50l51 54l29 -28l-51 -53c43 -47 67 -110 67 -173c0 -165 -108 -257 -242 -257c-66 0 -127 23 -172 65l-58 -61l-28 26l61 64c-30 42 -48 96 -48 161c0 128 86 252 244 252zM247 472c-71 0 -145 -68 -145 -197c0 -52 8 -99 25 -137l264 279
c-31 34 -77 55 -144 55zM448 229c0 55 -8 111 -33 155l-269 -282c34 -50 88 -79 163 -79c107 0 139 110 139 206z" />
    <glyph glyph-name="ugrave" unicode="&#xf9;" horiz-adv-x="562" 
d="M208 704c-4 5 -34 -3 -37 -7c-4 -4 -12 -33 -8 -36l178 -121l8 8zM542 0h-135l1 107c-40 -41 -118 -114 -197 -114c-89 0 -119 57 -119 166v244c0 58 -37 49 -72 42v11l135 50v-342c0 -71 7 -122 75 -122c82 0 156 73 178 93l-1 256c0 86 -75 59 -112 53v12l172 50
l1 -366c0 -99 14 -130 74 -130v-10z" />
    <glyph glyph-name="uacute" unicode="&#xfa;" horiz-adv-x="562" 
d="M342 704c4 5 34 -3 37 -7c4 -4 12 -33 8 -36l-179 -121l-8 8zM542 0h-135l1 107c-40 -41 -118 -114 -197 -114c-89 0 -119 57 -119 166v244c0 58 -37 49 -72 42v11l135 50v-342c0 -71 7 -122 75 -122c82 0 156 73 178 93l-1 256c0 86 -75 59 -112 53v12l172 50l1 -366
c0 -99 14 -130 74 -130v-10z" />
    <glyph glyph-name="ucircumflex" unicode="&#xfb;" horiz-adv-x="562" 
d="M128 543l7 -5l132 107l133 -105l8 5l-93 121s-34 46 -48 46s-48 -46 -48 -46zM542 0h-135l1 107c-40 -41 -118 -114 -197 -114c-89 0 -119 57 -119 166v244c0 58 -37 49 -72 42v11l135 50v-342c0 -71 7 -122 75 -122c82 0 156 73 178 93l-1 256c0 86 -75 59 -112 53v12
l172 50l1 -366c0 -99 14 -130 74 -130v-10z" />
    <glyph glyph-name="udieresis" unicode="&#xfc;" horiz-adv-x="562" 
d="M114 656c0 10 31 45 43 45c14 0 43 -35 43 -45s-28 -43 -43 -43c-12 0 -43 33 -43 43zM330 656c0 10 31 45 43 45c14 0 43 -35 43 -45s-28 -43 -43 -43c-12 0 -43 33 -43 43zM542 0h-135l1 107c-40 -41 -118 -114 -197 -114c-89 0 -119 57 -119 166v244
c0 58 -37 49 -72 42v11l135 50v-342c0 -71 7 -122 75 -122c82 0 156 73 178 93l-1 256c0 86 -75 59 -112 53v12l172 50l1 -366c0 -99 14 -130 74 -130v-10z" />
    <glyph glyph-name="yacute" unicode="&#xfd;" horiz-adv-x="540" 
d="M333 704c4 5 34 -3 37 -7c4 -4 12 -33 8 -36l-179 -121l-8 8zM217 -70l35 74l-163 424c-18 48 -42 61 -84 61v11h209v-11c-56 0 -76 -11 -58 -59l129 -353l114 353c15 46 0 59 -48 59v11h184v-11c-56 0 -66 -16 -83 -60l-226 -598c-15 -40 -31 -81 -83 -81h-111v12
c84 0 124 39 185 168z" />
    <glyph glyph-name="thorn" unicode="&#xfe;" horiz-adv-x="590" 
d="M15 622l-1 13l160 69v-267s76 69 166 69c160 0 223 -115 223 -233c0 -169 -129 -286 -284 -286c-65 0 -105 18 -105 18l1 -215l155 -28v-12h-296l1 12c72 0 72 31 72 93v725c0 84 -92 42 -92 42zM174 400v-182c0 -136 47 -198 143 -198c139 0 176 144 176 230
c0 120 -53 215 -186 215c-85 0 -133 -65 -133 -65z" />
    <glyph glyph-name="ydieresis" unicode="&#xff;" horiz-adv-x="540" 
d="M136 656c0 10 31 45 43 45c14 0 43 -35 43 -45s-28 -43 -43 -43c-12 0 -43 33 -43 43zM352 656c0 10 31 45 43 45c14 0 43 -35 43 -45s-28 -43 -43 -43c-12 0 -43 33 -43 43zM217 -70l35 74l-163 424c-18 48 -42 61 -84 61v11h209v-11c-56 0 -76 -11 -58 -59l129 -353
l114 353c15 46 0 59 -48 59v11h184v-11c-56 0 -66 -16 -83 -60l-226 -598c-15 -40 -31 -81 -83 -81h-111v12c84 0 124 39 185 168z" />
    <glyph glyph-name="dotlessi" unicode="&#x131;" horiz-adv-x="282" 
d="M170 509v-411c0 -56 1 -88 78 -88v-10h-218v10c76 0 78 32 78 88v294c0 86 -80 54 -80 54l-5 10z" />
    <glyph glyph-name="circumflex" unicode="&#x2c6;" 
d="M102 770l8 -6l129 110l128 -108l8 6l-84 116s-36 52 -52 52c-15 0 -52 -55 -52 -55z" />
    <glyph glyph-name="caron" unicode="&#x2c7;" horiz-adv-x="342" 
d="M269 801l10 -7l-108 -234h-7l-108 234l10 7l103 -156z" />
    <glyph glyph-name="breve" unicode="&#x2d8;" horiz-adv-x="331" 
d="M274 703c4 -89 -36 -131 -105 -131s-109 42 -104 131c-1 1 17 1 18 1c12 -53 36 -84 86 -84c52 0 75 30 88 83c0 -1 17 0 17 0z" />
    <glyph glyph-name="dotaccent" unicode="&#x2d9;" horiz-adv-x="209" 
d="M65 756c0 10 31 45 43 45c14 0 43 -35 43 -45s-28 -43 -43 -43c-12 0 -43 33 -43 43z" />
    <glyph glyph-name="ring" unicode="&#x2da;" horiz-adv-x="277" 
d="M224 713c0 -49 -40 -89 -89 -89c-48 0 -88 40 -88 89c0 48 40 88 88 88c49 0 89 -39 89 -88zM192 713c0 31 -23 63 -57 63c-33 0 -56 -32 -56 -63c0 -32 23 -64 56 -64c34 0 57 32 57 64z" />
    <glyph glyph-name="ogonek" unicode="&#x2db;" horiz-adv-x="305" 
d="M160 0h49v-2c-36 -7 -84 -46 -84 -85c0 -32 20 -61 59 -61c25 0 49 6 73 23l8 -7c-32 -29 -71 -49 -112 -49s-89 24 -89 70c0 53 51 93 96 111z" />
    <glyph glyph-name="tilde" unicode="&#x2dc;" horiz-adv-x="450" 
d="M123 754c-23 0 -73 -26 -73 -26l-4 10c26 18 84 55 115 55c36 0 98 -47 142 -47c40 0 87 43 87 43l6 -8c-32 -35 -86 -75 -135 -75c-41 0 -93 48 -138 48z" />
    <glyph glyph-name="hungarumlaut" unicode="&#x2dd;" horiz-adv-x="448" 
d="M192 796l47 -49l-188 -167l-8 9zM358 796l47 -49l-188 -167l-8 9z" />
    <glyph glyph-name="quoteleft" unicode="&#x2018;" horiz-adv-x="209" 
d="M152 493l5 9c-1 0 -73 43 -73 89c0 64 78 49 78 49c0 26 -24 64 -40 64c-43 0 -76 -40 -76 -85c0 -59 52 -102 106 -126z" />
    <glyph glyph-name="quoteright" unicode="&#x2019;" horiz-adv-x="197" 
d="M54 494l-5 9c1 0 73 43 73 89c0 64 -78 49 -78 49c0 26 23 64 40 64c43 0 75 -40 75 -85c0 -59 -52 -102 -105 -126z" />
    <glyph glyph-name="minus" unicode="&#x2212;" horiz-adv-x="537" 
d="M491 214h-443v54h443v-54z" />
    <glyph glyph-name="Euro" unicode="&#x20ac;" horiz-adv-x="611" 
d="M573 166l16 -8s-49 -164 -213 -164c-135 0 -253 94 -277 271h-86l13 37h69c-1 11 -1 22 -1 34c0 26 1 50 4 72h-61l13 37h54c37 196 176 257 288 257c132 0 181 -47 181 -47l3 -221h-16s-7 242 -191 242c-72 0 -174 -83 -202 -231h252l-12 -37h-246c-1 -15 -2 -30 -2 -46
c0 -21 1 -41 2 -60h234l-12 -37h-217c25 -167 118 -229 220 -229c128 0 187 130 187 130z" />
    <glyph glyph-name="OE" unicode="&#x152;" horiz-adv-x="930" 
d="M538 368h149c89 0 93 61 93 120h12l4 -273h-12c0 37 -7 114 -97 114h-149l1 -307c151 0 195 13 249 29c69 21 94 54 110 85l7 -3c-2 -13 -16 -137 -153 -137h-374c-215 0 -345 150 -345 353c0 209 119 350 343 350h483l40 -199l-11 -1s-20 167 -169 167h-181v-298z
M369 674c-188 0 -269 -144 -269 -300c0 -158 79 -351 294 -351c69 0 85 23 85 71v501c0 59 -19 79 -110 79z" />
    <glyph glyph-name="infinity" unicode="&#x221e;" horiz-adv-x="762" 
d="M396 280c39 47 95 125 160 125c84 0 145 -62 145 -154v-1c0 -99 -73 -159 -151 -159c-55 0 -99 39 -191 153c-41 53 -95 107 -161 107c-58 0 -93 -47 -93 -106c0 -54 40 -99 97 -99h1c44 0 107 44 142 78l7 -8c-40 -48 -96 -125 -157 -125c-79 0 -148 65 -148 155
c0 93 66 159 155 159c58 0 77 -22 189 -159c61 -71 112 -100 162 -100c57 0 90 53 90 100c0 64 -38 105 -93 105h-1c-47 0 -111 -43 -146 -78z" />
    <glyph glyph-name="s_t" unicode="&#xfb06;" horiz-adv-x="730" 
d="M167 506c41 0 82 -16 90 -20c0 0 -31 36 -31 87c0 59 46 117 146 117c70 0 134 -48 134 -129v-61h190l-32 -48h-157v-294c0 -76 10 -120 76 -120c51 0 110 42 110 42l7 -12s-81 -78 -149 -78c-106 0 -114 100 -110 159l20 302h-44l-4 17c3 1 63 32 63 94
c0 66 -58 99 -106 99c-44 0 -113 -22 -113 -90c0 -54 43 -99 104 -173l-13 -12s-87 95 -183 95c-42 0 -71 -19 -71 -77c0 -122 270 -111 270 -274c0 -125 -124 -137 -172 -137c-78 0 -150 16 -151 16l-9 91l11 1c41 -48 95 -81 152 -81c52 0 108 19 108 92
c0 142 -270 114 -270 287c0 102 108 107 134 107z" />
    <glyph glyph-name="ellipsis" unicode="&#x2026;" horiz-adv-x="517" 
d="M40 36c0 10 31 45 43 45c14 0 43 -35 43 -45s-28 -43 -43 -43c-12 0 -43 33 -43 43zM216 36c0 10 31 45 43 45c14 0 43 -35 43 -45s-28 -43 -43 -43c-12 0 -43 33 -43 43zM398 36c0 10 31 45 43 45c14 0 43 -35 43 -45s-28 -43 -43 -43c-12 0 -43 33 -43 43z" />
    <glyph glyph-name="quotedblleft" unicode="&#x201c;" horiz-adv-x="357" 
d="M152 493l5 9c-1 0 -73 43 -73 89c0 64 78 49 78 49c0 26 -24 64 -40 64c-43 0 -76 -40 -76 -85c0 -59 52 -102 106 -126zM304 493l5 9c-1 0 -73 43 -73 89c0 64 78 49 78 49c0 26 -24 64 -40 64c-43 0 -76 -40 -76 -85c0 -59 52 -102 106 -126z" />
    <glyph glyph-name="quotedblright" unicode="&#x201d;" horiz-adv-x="361" 
d="M54 494l-5 9c1 0 73 43 73 89c0 64 -78 49 -78 49c0 26 23 64 40 64c43 0 75 -40 75 -85c0 -59 -52 -102 -105 -126zM207 494l-5 9c1 0 73 43 73 89c0 64 -78 49 -78 49c0 26 23 64 40 64c43 0 75 -40 75 -85c0 -59 -52 -102 -105 -126z" />
    <glyph glyph-name="oe" unicode="&#x153;" horiz-adv-x="870" 
d="M269 502c92 0 163 -48 204 -113c31 63 88 115 184 115c176 0 186 -187 186 -187s-324 1 -333 0c-1 -2 -8 -36 -8 -85c0 -129 84 -198 187 -198c110 0 148 75 148 75l9 -7s-32 -112 -186 -112c-88 0 -151 47 -186 113c-43 -70 -118 -108 -204 -108
c-134 0 -245 92 -245 255c0 128 86 252 244 252zM656 474c-111 0 -141 -122 -141 -122h209c36 0 46 20 46 35c0 29 -29 87 -114 87zM239 472c-71 0 -145 -68 -145 -197c0 -148 65 -252 207 -252c107 0 139 110 139 206c0 120 -39 243 -201 243z" />
    <glyph glyph-name="endash" unicode="&#x2013;" horiz-adv-x="432" 
d="M53 226v48h324v-48h-324z" />
    <glyph glyph-name="emdash" unicode="&#x2014;" horiz-adv-x="734" 
d="M53 226v48h626v-48h-626z" />
    <glyph glyph-name="A.ss01" horiz-adv-x="700" 
d="M279 700h100l212 -629c12 -35 35 -57 91 -57v-14h-256v14c82 0 113 29 79 126l-39 111h-249l-42 -110c-34 -89 -15 -127 88 -127v-14h-245v14c60 0 93 41 121 117l190 508c0 49 -50 51 -50 51v10zM347 608l-115 -314h218z" />
    <glyph glyph-name="R.ss01" horiz-adv-x="638" 
d="M470 176c51 -104 95 -162 168 -162v-14h-59c-71 0 -86 25 -114 77l-39 72c-19 33 -37 66 -56 100c-26 47 -53 52 -122 52h-42v16h101c64 0 160 41 160 186c0 143 -112 168 -227 168h-25c-31 0 -40 -8 -40 -48v-529c0 -77 43 -82 137 -82v-12h-291v11c73 0 89 27 89 84
v515c0 42 -16 78 -89 78v11h217c140 0 299 -20 299 -193c0 -171 -171 -191 -171 -191c23 0 47 -23 67 -64z" />
    <glyph glyph-name="S.ss01" horiz-adv-x="555" 
d="M283 706c77 0 148 -15 150 -14l39 -241l-10 -2s-68 236 -188 236c-59 0 -155 -40 -155 -132c0 -146 386 -203 386 -385c0 -156 -144 -177 -221 -177c-105 0 -205 22 -206 23l-28 260l10 1s69 -263 230 -263c70 0 151 56 151 136c0 173 -386 210 -386 396
c0 153 176 162 228 162z" />
    <glyph glyph-name="A.ss02" horiz-adv-x="700" 
d="M372 720l219 -649c12 -35 35 -57 91 -57v-14h-256v14c82 0 113 29 79 126l-39 111h-249l-42 -110c-34 -89 -15 -127 88 -127v-14h-245v14c60 0 93 41 121 117l224 589h9zM347 608l-115 -314h218z" />
    <glyph glyph-name="S.ss02" horiz-adv-x="512" 
d="M260 706c77 0 148 -15 150 -14l8 -70l-9 -3s-59 66 -158 66c-59 0 -135 -40 -135 -132c0 -146 346 -203 346 -385c0 -156 -124 -177 -201 -177c-105 0 -205 22 -206 23l-5 92l10 1s56 -95 207 -95c70 0 131 56 131 136c0 173 -346 210 -346 396c0 153 156 162 208 162z
" />
    <glyph glyph-name="f.ss01" horiz-adv-x="341" 
d="M316 778v-154h-15s1 158 -104 158c-67 0 -95 -52 -95 -108c0 -102 125 -174 206 -173l-5 -133h-10c0 67 -22 96 -124 96v-342c0 -91 14 -112 106 -112v-10h-240v10c49 0 72 21 72 94v360c-44 2 -76 -11 -76 -11l16 47h209c-61 0 -226 65 -226 184c0 98 86 125 161 125
c81 0 125 -31 125 -31z" />
    <glyph glyph-name="A_R" horiz-adv-x="1161" 
d="M1053 2c66 -91 103 -101 103 -101l-1 -9c-69 0 -129 54 -162 107c-31 49 -108 172 -168 250c-34 44 -45 52 -114 52h-73v-207c0 -77 43 -82 137 -82v-12h-291v12c71 0 94 5 94 86v203h-211l-110 -142c-65 -83 -72 -147 43 -147v-12h-275v12c67 0 115 60 173 135l371 483
c-20 53 -149 57 -163 57v13h295c140 0 299 -21 299 -194c0 -171 -161 -191 -161 -191c54 -19 164 -244 214 -313zM770 333c64 0 160 25 160 170c0 143 -112 168 -227 168h-25c-31 0 -40 -8 -40 -48v-290h132zM578 333v244l-187 -244h187z" />
    <glyph glyph-name="F_F" horiz-adv-x="773" 
d="M723 701l40 -200l-12 -1s-22 171 -158 171h-165v-304h152c74 0 72 61 72 120h13v-271h-12c0 51 1 114 -73 114h-152l1 -295l117 -25v-10h-529v11c65 0 90 33 90 76v509c0 71 -19 94 -90 94v11h706zM367 367v304h-199v-304h199zM367 87v243h-199l1 -241
c0 -49 8 -77 62 -77h75c47 0 61 36 61 75z" />
    <glyph glyph-name="L_L" horiz-adv-x="789" 
d="M763 336l6 -3c-2 -13 -15 -137 -152 -137c-125 0 -285 4 -285 4v11c45 0 69 32 69 76l1 309c0 51 -1 93 -70 93h-65c-79 0 -115 -19 -115 -93v-574c151 0 182 16 236 33c70 22 95 55 113 81l6 -3c-2 -13 -15 -137 -152 -137c-125 0 -335 4 -335 4v11c45 0 69 32 69 76
l1 509c0 51 -11 93 -70 93v12h559v-12c-62 0 -115 -19 -115 -93v-374c101 0 132 16 186 33c70 22 95 55 113 81z" />
    <glyph glyph-name="O_C" horiz-adv-x="1079" 
d="M1054 66c0 0 -90 -75 -261 -75c-77 0 -153 21 -216 62c-57 -38 -127 -59 -207 -59c-214 0 -347 156 -347 358c0 207 144 355 345 355c88 0 157 -23 210 -60c66 41 143 59 210 59c136 0 225 -46 225 -46l36 -223l-17 -5c2 4 -28 251 -251 251c-49 0 -117 -16 -175 -58
c83 -72 118 -181 118 -274c0 -107 -37 -197 -101 -261c58 -42 128 -59 193 -59c152 0 229 52 229 52zM385 20c69 0 123 20 164 53c-75 60 -126 153 -126 280c0 122 47 208 113 264c-47 41 -107 65 -176 65c-187 0 -269 -151 -269 -306c0 -157 81 -356 294 -356zM652 334
c0 100 -32 191 -87 254c-41 -44 -69 -108 -69 -195c0 -131 39 -219 95 -275c43 59 61 138 61 216z" />
    <glyph glyph-name="O_F" horiz-adv-x="758" 
d="M371 702c256 0 351 -198 351 -353c0 -204 -140 -352 -350 -352c-23 0 -45 1 -68 7v-167l117 -22v-11l-247 -1v12c46 0 69 33 69 75v130c-132 49 -211 178 -211 330c0 206 140 352 339 352zM304 134h73c84 0 107 42 145 93l10 -8l-73 -121h-155v-61c26 -7 53 -12 84 -12
c193 0 265 155 265 308c0 188 -115 344 -290 344c-183 0 -263 -149 -263 -301c0 -112 41 -246 143 -311v235c0 49 -18 92 -69 92v11h382l38 -196l-12 -2s-22 170 -156 170h-122v-241z" />
    <glyph glyph-name="T_H_E" horiz-adv-x="1581" 
d="M1544 135l6 -2c-1 -14 -15 -138 -152 -138c-124 0 -381 6 -381 6h-332v11c79 0 126 15 126 105v189c0 18 0 30 -21 30h-417c-26 0 -26 -12 -26 -34v-205c0 -96 130 -86 132 -86v-11h-319v9c0 2 124 -9 124 89v532c0 35 -9 43 -45 43h-62c-111 0 -144 -179 -144 -181
l-13 3l39 205h520l36 -201l-13 -5s-14 178 -149 178h-64c-35 0 -42 -7 -42 -42v-219c0 -19 2 -33 27 -33h413c23 0 24 11 24 31v173c0 90 -47 106 -126 106v12h820l39 -200l-10 -3s-19 170 -170 170h-183v-303h159c96 0 95 54 95 121h14v-271h-16c0 64 2 115 -93 115h-159
l1 -310c150 0 188 13 241 30c71 25 104 62 121 86zM1119 102v492c0 85 -51 84 -102 84h-60c-69 0 -92 -34 -92 -97v-477c0 -59 22 -82 93 -82h90c51 0 71 21 71 80z" />
    <glyph glyph-name="zero.lf" horiz-adv-x="527" 
d="M264 706c159 0 232 -192 232 -357c0 -173 -73 -358 -232 -358c-160 0 -233 185 -233 358c0 165 73 357 233 357zM264 689c-121 0 -151 -176 -151 -340c0 -138 30 -342 151 -342c119 0 149 195 149 342c0 164 -30 340 -149 340z" />
    <glyph glyph-name="one.lf" horiz-adv-x="381" 
d="M356 13v-13h-320v13c132 0 139 19 139 140v409c0 56 -35 79 -135 49c0 0 -4 12 -5 13c93 26 188 85 188 85h10v-559c0 -119 11 -137 123 -137z" />
    <glyph glyph-name="two.lf" horiz-adv-x="509" 
d="M406 519c0 68 -25 159 -139 164h-3c-127 0 -114 -132 -152 -132c-20 0 -38 17 -38 37c0 35 80 117 185 117c110 0 217 -60 217 -184c0 -95 -27 -173 -222 -342l-175 -152l162 13c183 15 219 119 221 120l18 -7l-79 -153h-371l-5 11l171 178c91 94 210 198 210 330z" />
    <glyph glyph-name="three.lf" horiz-adv-x="469" 
d="M168 428c114 5 267 -55 267 -204c0 -138 -113 -231 -273 -231c-66 0 -105 15 -105 48c0 19 18 37 38 37c38 0 61 -53 149 -53c67 0 132 79 132 158c0 111 -57 187 -216 187c-33 0 -81 0 -81 -4l-6 10l265 276h-182c-64 0 -104 -59 -104 -59s-8 4 -10 4c3 4 41 102 41 102
h344z" />
    <glyph glyph-name="four.lf" horiz-adv-x="545" 
d="M495 13v-13h-294v13c79 0 113 11 113 122v93h-272l-6 12l278 460h60v-427s16 -1 45 3c76 10 89 85 90 85l13 -2l-46 -131h-102v-94c0 -97 7 -121 121 -121zM314 274v369l-222 -369h222z" />
    <glyph glyph-name="five.lf" horiz-adv-x="464" 
d="M176 428c131 0 247 -55 247 -204c0 -138 -113 -231 -273 -231c-66 0 -105 15 -105 48c0 19 18 37 38 37c38 0 61 -53 149 -53c67 0 132 79 132 158c0 111 -48 186 -207 186c-65 0 -104 -7 -105 -7l85 338h215c42 0 65 25 74 38l8 -3l-52 -100h-198c-27 0 -34 -10 -39 -32
l-41 -179l-1 -1s33 5 73 5z" />
    <glyph glyph-name="six.lf" horiz-adv-x="469" 
d="M229 14c88 0 139 94 139 201c0 65 -32 152 -125 152c-50 0 -91 -23 -92 -24l-6 10c0 1 55 47 116 47c107 0 180 -77 180 -181c0 -132 -85 -231 -208 -231c-118 0 -205 91 -205 244c0 329 360 484 360 484l11 -10s-295 -172 -295 -472c0 -122 41 -220 125 -220z" />
    <glyph glyph-name="seven.lf" 
d="M185 651c-115 -14 -140 -97 -141 -102h-18l48 151h381l3 -7l-321 -711l-65 28c2 0 330 653 329 657c0 0 -121 -4 -216 -16z" />
    <glyph glyph-name="eight.lf" horiz-adv-x="457" 
d="M243 705c144 0 183 -87 183 -142c0 -126 -139 -175 -162 -182c95 -52 171 -110 171 -210c0 -127 -109 -183 -205 -183c-107 0 -209 68 -209 185c0 126 119 172 160 186c-70 44 -126 118 -126 177c0 133 110 169 188 169zM245 684c-42 0 -114 -36 -114 -135
c0 -64 34 -111 113 -160c21 6 112 44 112 177c0 35 -19 118 -111 118zM93 186c0 -115 60 -176 125 -178c63 -1 138 43 138 161c0 89 -58 126 -156 181c-34 -13 -107 -57 -107 -164z" />
    <glyph glyph-name="nine.lf" horiz-adv-x="472" 
d="M231 705c160 0 209 -120 209 -215c0 -426 -238 -499 -381 -499c0 0 1 20 0 20c147 0 298 91 298 360c0 0 -50 -79 -142 -79c-123 0 -184 97 -184 199c0 110 80 214 200 214zM235 685c-67 0 -130 -68 -130 -190c0 -98 42 -174 118 -174c75 0 143 71 143 178
c0 66 -28 186 -131 186z" />
    <glyph glyph-name="zero.osf" horiz-adv-x="563" 
d="M280 508c137 0 252 -108 252 -260c0 -149 -115 -257 -252 -257c-138 0 -253 108 -253 257c0 152 115 260 253 260zM280 37c105 0 200 95 200 211c0 118 -95 214 -200 214c-106 0 -197 -96 -197 -214c0 -116 91 -211 197 -211z" />
    <glyph glyph-name="one.osf" horiz-adv-x="329" 
d="M185 396v-298c0 -79 50 -88 90 -88v-10h-235v10c39 0 93 10 93 94v292c0 85 -54 94 -93 94v10h235v-10c-41 0 -90 -9 -90 -94z" />
    <glyph glyph-name="two.osf" horiz-adv-x="396" 
d="M202 245c-102 0 -161 48 -161 123c0 105 93 135 160 135c62 0 166 -19 166 -133c0 -86 -40 -134 -170 -246l-116 -100l96 10c152 16 181 94 182 95l13 -5l-54 -124h-289l-4 8l130 129c56 55 102 105 127 136c-5 -5 -34 -28 -80 -28zM302 370c0 60 -23 111 -102 111
c-64 0 -99 -52 -99 -111c0 -32 16 -103 102 -103c58 0 99 49 99 103z" />
    <glyph glyph-name="three.osf" horiz-adv-x="443" 
d="M161 244c107 5 256 -51 256 -192c0 -130 -111 -218 -262 -218c-62 0 -99 14 -99 45c0 18 17 35 36 35c36 0 57 -50 140 -50c64 0 125 75 125 149c0 105 -54 177 -204 177c-31 0 -76 0 -76 -4l-6 9l240 253h-162c-60 0 -98 -56 -98 -56s-8 4 -9 4c3 4 39 104 39 104h324z
" />
    <glyph glyph-name="four.osf" horiz-adv-x="510" 
d="M349 52v-214h-62v214h-256l-7 13l263 435h62v-407c0 -1 13 0 40 3c72 10 87 84 88 84l12 -2l-43 -126h-97zM287 93v358l-215 -358h215z" />
    <glyph glyph-name="five.osf" horiz-adv-x="455" 
d="M180 247c123 0 236 -52 236 -192c0 -131 -111 -218 -260 -218c-62 0 -99 15 -99 45c0 19 17 35 36 35c35 0 56 -50 140 -50c62 0 124 74 124 149c0 104 -45 175 -195 175c-62 0 -107 -6 -108 -6l79 317h212c40 0 61 24 70 36l7 -3l-48 -93h-196c-25 0 -33 -10 -37 -31
l-38 -168l-1 -2s40 6 78 6z" />
    <glyph glyph-name="six.osf" 
d="M229 14c88 0 139 94 139 201c0 65 -32 152 -125 152c-50 0 -91 -23 -92 -24l-6 10c0 1 55 47 116 47c107 0 180 -77 180 -181c0 -132 -85 -231 -208 -231c-118 0 -205 91 -205 244c0 329 360 484 360 484l11 -10s-295 -172 -295 -472c0 -122 41 -220 125 -220z" />
    <glyph glyph-name="seven.osf" horiz-adv-x="472" 
d="M173 452c-106 -13 -129 -87 -130 -92h-17l45 140h353l3 -6l-296 -660l-67 29c2 0 311 603 310 606c0 0 -113 -6 -201 -17z" />
    <glyph glyph-name="eight.osf" horiz-adv-x="455" 
d="M243 705c144 0 183 -87 183 -142c0 -126 -139 -175 -162 -182c95 -52 171 -110 171 -210c0 -127 -109 -183 -205 -183c-107 0 -209 68 -209 185c0 126 119 172 160 186c-70 44 -126 118 -126 177c0 133 110 169 188 169zM245 684c-42 0 -114 -36 -114 -135
c0 -64 34 -111 113 -160c21 6 112 44 112 177c0 35 -19 118 -111 118zM93 186c0 -115 60 -176 125 -178c63 -1 138 43 138 161c0 89 -58 126 -156 181c-34 -13 -107 -57 -107 -164z" />
    <glyph glyph-name="nine.osf" horiz-adv-x="444" 
d="M219 504c150 0 200 -113 200 -202c0 -400 -227 -469 -362 -469c0 0 1 19 0 19c138 0 280 86 280 338c0 0 -47 -74 -133 -74c-116 0 -177 91 -177 187c0 103 79 201 192 201zM223 485c-63 0 -123 -64 -123 -178c0 -92 40 -164 111 -164s135 67 135 168
c0 62 -27 174 -123 174z" />
    <glyph glyph-name="two.ss01" horiz-adv-x="528" 
d="M273 347c-134 0 -219 81 -219 169c0 138 118 189 212 189c87 0 226 -34 226 -186c0 -106 -45 -171 -251 -354l-156 -138l156 13c213 18 239 119 241 120l18 -7l-79 -153h-391l-5 11l182 178c79 77 147 149 179 194c-9 -7 -55 -36 -113 -36zM423 519
c0 64 -37 156 -158 156c-100 0 -141 -73 -141 -156c0 -45 28 -149 151 -149c83 0 148 62 148 149z" />
    <glyph glyph-name="zero.tf" 
d="M250 706c159 0 232 -192 232 -357c0 -173 -73 -358 -232 -358c-160 0 -233 185 -233 358c0 165 73 357 233 357zM250 689c-121 0 -151 -176 -151 -340c0 -138 30 -342 151 -342c119 0 149 195 149 342c0 164 -30 340 -149 340z" />
    <glyph glyph-name="one.tf" 
d="M421 13v-13h-320v13c132 0 139 19 139 140v409c0 56 -35 79 -135 49c0 0 -4 12 -5 13c93 26 188 85 188 85h10v-559c0 -119 11 -137 123 -137z" />
    <glyph glyph-name="two.tf" 
d="M406 519c0 68 -25 159 -139 164h-3c-127 0 -114 -132 -152 -132c-20 0 -38 17 -38 37c0 35 80 117 185 117c110 0 217 -60 217 -184c0 -95 -27 -173 -222 -342l-175 -152l162 13c183 15 219 119 221 120l18 -7l-79 -153h-371l-5 11l171 178c91 94 210 198 210 330z" />
    <glyph glyph-name="three.tf" 
d="M176 428c114 5 267 -55 267 -204c0 -138 -113 -231 -273 -231c-66 0 -105 15 -105 48c0 19 18 37 38 37c38 0 61 -53 149 -53c67 0 132 79 132 158c0 111 -57 187 -216 187c-33 0 -81 0 -81 -4l-6 10l265 276h-182c-64 0 -104 -59 -104 -59s-8 4 -10 4c3 4 41 102 41 102
h344z" />
    <glyph glyph-name="four.tf" 
d="M469 13v-13h-294v13c79 0 113 11 113 122v93h-272l-6 12l278 460h60v-427s16 -1 45 3c76 10 89 85 90 85l13 -2l-46 -131h-102v-94c0 -97 7 -121 121 -121zM288 274v369l-222 -369h222z" />
    <glyph glyph-name="five.tf" 
d="M181 428c131 0 247 -55 247 -204c0 -138 -113 -231 -273 -231c-66 0 -105 15 -105 48c0 19 18 37 38 37c38 0 61 -53 149 -53c67 0 132 79 132 158c0 111 -48 186 -207 186c-65 0 -104 -7 -105 -7l85 338h215c42 0 65 25 74 38l8 -3l-52 -100h-198c-27 0 -34 -10 -39 -32
l-41 -179l-1 -1s33 5 73 5z" />
    <glyph glyph-name="six.tf" 
d="M243 14c88 0 139 94 139 201c0 65 -32 152 -125 152c-50 0 -91 -23 -92 -24l-6 10c0 1 55 47 116 47c107 0 180 -77 180 -181c0 -132 -85 -231 -208 -231c-118 0 -205 91 -205 244c0 329 360 484 360 484l11 -10s-295 -172 -295 -472c0 -122 41 -220 125 -220z" />
    <glyph glyph-name="seven.tf" 
d="M185 651c-115 -14 -140 -97 -141 -102h-18l48 151h381l3 -7l-321 -711l-65 28c2 0 330 653 329 657c0 0 -121 -4 -216 -16z" />
    <glyph glyph-name="eight.tf" 
d="M262 705c144 0 183 -87 183 -142c0 -126 -139 -175 -162 -182c95 -52 171 -110 171 -210c0 -127 -109 -183 -205 -183c-107 0 -209 68 -209 185c0 126 119 172 160 186c-70 44 -126 118 -126 177c0 133 110 169 188 169zM264 684c-42 0 -114 -36 -114 -135
c0 -64 34 -111 113 -160c21 6 112 44 112 177c0 35 -19 118 -111 118zM112 186c0 -115 60 -176 125 -178c63 -1 138 43 138 161c0 89 -58 126 -156 181c-34 -13 -107 -57 -107 -164z" />
    <glyph glyph-name="nine.tf" 
d="M250 705c160 0 209 -120 209 -215c0 -426 -238 -499 -381 -499c0 0 1 20 0 20c147 0 298 91 298 360c0 0 -50 -79 -142 -79c-123 0 -184 97 -184 199c0 110 80 214 200 214zM254 685c-67 0 -130 -68 -130 -190c0 -98 42 -174 118 -174c75 0 143 71 143 178
c0 66 -28 186 -131 186z" />
    <glyph glyph-name="zero.tosf" horiz-adv-x="565" 
d="M283 508c137 0 252 -108 252 -260c0 -149 -115 -257 -252 -257c-138 0 -253 108 -253 257c0 152 115 260 253 260zM283 37c105 0 200 95 200 211c0 118 -95 214 -200 214c-106 0 -197 -96 -197 -214c0 -116 91 -211 197 -211z" />
    <glyph glyph-name="one.tosf" horiz-adv-x="565" 
d="M310 396v-298c0 -79 50 -88 90 -88v-10h-235v10c39 0 93 10 93 94v292c0 85 -54 94 -93 94v10h235v-10c-41 0 -90 -9 -90 -94z" />
    <glyph glyph-name="two.tosf" horiz-adv-x="565" 
d="M286 245c-102 0 -161 48 -161 123c0 105 93 135 160 135c62 0 166 -19 166 -133c0 -86 -40 -134 -170 -246l-116 -100l96 10c152 16 181 94 182 95l13 -5l-54 -124h-289l-4 8l130 129c56 55 102 105 127 136c-5 -5 -34 -28 -80 -28zM386 370c0 60 -23 111 -102 111
c-64 0 -99 -52 -99 -111c0 -32 16 -103 102 -103c58 0 99 49 99 103z" />
    <glyph glyph-name="three.tosf" horiz-adv-x="565" 
d="M214 244c107 5 256 -51 256 -192c0 -130 -111 -218 -262 -218c-62 0 -99 14 -99 45c0 18 17 35 36 35c36 0 57 -50 140 -50c64 0 125 75 125 149c0 105 -54 177 -204 177c-31 0 -76 0 -76 -4l-6 9l240 253h-162c-60 0 -98 -56 -98 -56s-8 4 -9 4c3 4 39 104 39 104h324z
" />
    <glyph glyph-name="four.tosf" horiz-adv-x="565" 
d="M375 52v-214h-62v214h-256l-7 13l263 435h62v-407c0 -1 13 -1 40 3c72 11 87 84 88 84l12 -2l-43 -126h-97zM313 93v358l-215 -358h215z" />
    <glyph glyph-name="five.tosf" horiz-adv-x="565" 
d="M225 247c123 0 236 -52 236 -192c0 -131 -111 -218 -260 -218c-62 0 -99 15 -99 45c0 19 17 35 36 35c35 0 56 -50 140 -50c62 0 124 74 124 149c0 104 -45 175 -195 175c-62 0 -107 -6 -108 -6l79 317h212c40 0 61 24 70 36l7 -3l-48 -93h-196c-25 0 -32 -10 -37 -31
l-38 -168l-1 -2s40 6 78 6z" />
    <glyph glyph-name="six.tosf" horiz-adv-x="565" 
d="M277 14c88 0 139 94 139 201c0 65 -32 152 -125 152c-50 0 -91 -23 -92 -24l-6 10c0 1 55 47 116 47c107 0 180 -77 180 -181c0 -132 -85 -231 -208 -231c-118 0 -205 91 -205 244c0 329 360 484 360 484l11 -10s-295 -172 -295 -472c0 -122 41 -220 125 -220z" />
    <glyph glyph-name="seven.tosf" horiz-adv-x="565" 
d="M229 452c-106 -13 -129 -87 -130 -92h-17l45 140h353l3 -6l-296 -660l-67 29c2 0 311 603 310 606c0 0 -113 -6 -201 -17z" />
    <glyph glyph-name="eight.tosf" horiz-adv-x="565" 
d="M298 705c144 0 183 -87 183 -142c0 -126 -139 -175 -162 -182c95 -52 171 -110 171 -210c0 -127 -109 -183 -205 -183c-107 0 -209 68 -209 185c0 126 119 172 160 186c-70 44 -126 118 -126 177c0 133 110 169 188 169zM300 684c-42 0 -114 -36 -114 -135
c0 -64 34 -111 113 -160c21 6 112 44 112 177c0 35 -19 118 -111 118zM148 186c0 -115 60 -177 125 -178c63 -1 138 43 138 161c0 89 -58 126 -156 181c-34 -13 -107 -57 -107 -164z" />
    <glyph glyph-name="nine.tosf" horiz-adv-x="569" 
d="M280 504c150 0 200 -113 200 -202c0 -400 -227 -469 -362 -469c0 0 1 19 0 19c138 0 280 86 280 338c0 0 -47 -74 -133 -74c-116 0 -177 91 -177 187c0 103 79 201 192 201zM284 485c-63 0 -123 -64 -123 -178c0 -92 40 -164 111 -164s135 67 135 168
c0 62 -27 174 -123 174z" />
    <glyph glyph-name="zero.zero" horiz-adv-x="516" 
d="M262 706c159 0 232 -192 232 -357c0 -173 -73 -358 -232 -358c-160 0 -233 185 -233 358c0 165 73 357 233 357zM262 689c-121 0 -151 -176 -151 -340c0 -80 10 -182 42 -253l203 538c-22 34 -53 55 -94 55zM411 349c0 90 -9 183 -37 249l-203 -536c22 -34 52 -55 91 -55
c119 0 149 195 149 342z" />
    <glyph glyph-name="fraction" unicode="&#x2044;" horiz-adv-x="600" 
d="M558 773l-468 -783l-29 17l469 783z" />
    <glyph glyph-name="arrowup" unicode="&#x2191;" horiz-adv-x="480" 
d="M255 617c0 18 6 24 21 9l164 -166v37l-200 203l-200 -203v-37l168 166c9 9 17 9 17 -9l1 -592h30z" />
    <glyph glyph-name="uni2197" unicode="&#x2197;" horiz-adv-x="475" 
d="M389 323c10 11 20 11 20 -10l-1 -234l27 28l-1 285h-283l-27 -29l238 1c13 1 16 -6 4 -22l-326 -322l22 -21z" />
    <glyph glyph-name="arrowright" unicode="&#x2192;" horiz-adv-x="760" 
d="M638 316c15 0 22 6 7 21l-165 163h39l201 -200l-201 -200h-39l165 165c11 11 14 21 -9 21l-596 -1v30z" />
    <glyph glyph-name="uni2198" unicode="&#x2198;" horiz-adv-x="496" 
d="M366 157c12 -10 12 -20 -9 -20h-234l28 -27l285 1v283l-29 27v-238c0 -15 -6 -18 -22 -3l-324 322l-21 -21z" />
    <glyph glyph-name="arrowdown" unicode="&#x2193;" horiz-adv-x="480" 
d="M255 102c0 -15 6 -22 21 -7l164 165v-39l-200 -201l-200 202v39l168 -169c9 -9 17 -7 17 12v596h30v-598z" />
    <glyph glyph-name="uni2199" unicode="&#x2199;" horiz-adv-x="494" 
d="M129 157c-12 -11 -11 -20 10 -20h232l-28 -27l-283 1v283l28 27v-233c0 -15 9 -21 22 -8l323 322l21 -21z" />
    <glyph glyph-name="arrowleft" unicode="&#x2190;" horiz-adv-x="760" 
d="M122 285c-15 0 -23 -7 -7 -21l165 -164h-39l-201 200l201 200h39l-169 -168c-9 -9 -6 -17 13 -17h596v-30h-598z" />
    <glyph glyph-name="uni2196" unicode="&#x2196;" horiz-adv-x="475" 
d="M86 323c-12 12 -20 11 -20 -10l1 -234l-27 28l1 285h283l27 -29l-238 1c-15 0 -16 -10 -4 -22l326 -322l-22 -21z" />
    <glyph glyph-name="arrowboth" unicode="&#x2194;" horiz-adv-x="780" 
d="M111 281c-13 -13 -6 -18 12 -18h529c20 0 18 9 7 20l-171 164h41l211 -200l-212 -200h-41l172 167c10 10 12 19 -8 19h-528c-18 0 -18 -8 -9 -17l166 -168h-37l-203 200l204 200h37z" />
    <glyph glyph-name="arrowupdn" unicode="&#x2195;" horiz-adv-x="480" 
d="M273 629c-11 11 -18 6 -18 -12l1 -529c0 -23 9 -18 20 -7l164 172v-41l-200 -212l-200 212v41l169 -174c10 -10 17 -14 17 10l-1 528c0 18 -8 18 -14 12l-171 -169v37l200 203l200 -203v-37z" />
    <glyph glyph-name="lozenge" unicode="&#x25ca;" horiz-adv-x="600" 
d="M275 0l-235 350l235 350h50l235 -350l-235 -350h-50zM300 18l222 332l-222 332l-222 -332z" />
    <glyph glyph-name="trademark" unicode="&#x2122;" horiz-adv-x="1465" 
d="M1357 99c4 -69 20 -88 88 -88v-12h-272v12c102 0 134 17 127 124l-33 486l-287 -630h-4l-266 615l-48 -474c-11 -105 34 -121 135 -121v-12h-262v12c68 0 84 42 91 105l49 465c5 44 15 92 -51 92h-234c-36 0 -43 -7 -43 -41v-534c0 -90 131 -84 131 -84v-14h-319v14
s125 -4 125 85v533c0 35 -10 42 -44 42h-63c-111 0 -145 -178 -145 -180l-12 4l40 202h790l1 -12c-45 0 -100 -15 -84 -52l226 -529l239 529c17 38 -43 51 -81 51l-1 13h269l1 -12c-42 0 -95 -22 -91 -89z" />
    <glyph glyph-name="dagger" unicode="&#x2020;" horiz-adv-x="600" 
d="M320 700l-25 -204l186 22v-82l-186 23l25 -679h-92l35 677l-196 -21v82l196 -23l-35 205h92z" />
    <glyph glyph-name="daggerdbl" unicode="&#x2021;" horiz-adv-x="600" 
d="M64 426v88l190 -25l-27 211h94l-26 -211l189 25v-88l-189 26v-423l189 26v-87l-189 24l27 -212h-94l26 212l-190 -24v87l190 -26v423z" />
    <glyph glyph-name="estimated" unicode="&#x212e;" horiz-adv-x="864" 
d="M185 336c-3 0 -5 -1 -5 -5v-202c0 -8 3 -15 10 -22c63 -63 147 -84 243 -84c271 0 355 240 355 240h34s-91 -272 -390 -272c-220 0 -397 158 -397 354c0 197 177 357 397 357c219 0 397 -160 397 -357v-9h-644zM683 562c0 9 -3 18 -9 24c-62 61 -148 86 -241 86
c-95 0 -180 -28 -242 -91c-8 -7 -11 -16 -11 -25v-195c0 -3 2 -7 5 -7h494c3 0 4 4 4 7v201z" />
    <glyph glyph-name="TILL" horiz-adv-x="740" 
d="M370 700c193 0 350 -157 350 -350s-157 -350 -350 -350s-350 157 -350 350s157 350 350 350zM370 671c-26 0 -52 -3 -76 -9l53 -51c22 -21 31 -21 54 1l49 49c-25 6 -52 10 -80 10zM265 653c-62 -21 -115 -62 -153 -113l44 -89c13 -25 17 -31 43 -40l18 -6
c27 -9 34 -7 50 3l71 55c15 13 21 19 21 47v20c0 27 -2 33 -25 54l-70 68zM631 534c-37 53 -90 94 -152 117l-67 -67c-21 -21 -24 -27 -24 -54v-20c0 -31 5 -35 26 -52l60 -49c17 -11 25 -14 52 -6l20 6c25 8 30 11 44 40zM95 514c-26 -43 -42 -93 -45 -146l58 30
c28 14 32 23 18 52zM689 365c-3 51 -17 98 -40 140l-30 -60c-14 -28 -11 -37 17 -52zM443 284l20 52c11 29 11 38 -12 57l-49 39c-29 23 -35 21 -64 -2l-54 -42c-17 -15 -17 -23 -9 -45l19 -49c13 -35 16 -37 54 -37h63c18 1 24 7 32 27zM323 406h99l9 -57l-4 -1
s-5 41 -29 41h-5c-7 0 -9 -2 -9 -9v-75c0 -20 15 -23 38 -23h6v-4h-111v4h4c23 0 40 2 40 23v75c0 7 -3 9 -9 9h-7c-21 0 -27 -42 -27 -42l-4 1zM118 153l87 16c27 5 33 10 48 32l12 18c14 22 14 28 11 44l-28 72c-9 25 -10 30 -40 41l-19 7c-26 10 -32 10 -60 -5l-80 -42
c3 -69 28 -132 69 -183zM625 159c37 49 61 110 64 176l-76 40c-26 14 -33 13 -58 5l-20 -6c-30 -9 -31 -14 -42 -39l-22 -59c-6 -24 -12 -32 7 -57l13 -17c16 -21 19 -25 50 -30zM477 128c6 29 4 36 -11 57l-13 18c-14 20 -21 23 -36 26h-76c-26 -2 -36 -1 -52 -27l-12 -19
c-14 -22 -15 -26 -8 -58l19 -83c26 -7 54 -11 82 -11c32 0 62 5 91 13zM490 55c44 18 83 45 115 79l-58 9c-33 5 -38 0 -45 -32zM139 129c33 -34 74 -61 119 -78l-15 58c-8 33 -13 36 -46 30z" />
    </font>
</defs>
</svg>
